<?xml version="1.0" encoding="utf-8"?>
<!-- Generator: Adobe Illustrator 20.0.0, SVG Export Plug-In . SVG Version: 6.00 Build 0)  -->
<svg version="1.1" xmlns="http://www.w3.org/2000/svg" xmlns:xlink="http://www.w3.org/1999/xlink" x="0px" y="0px"
	 viewBox="0 0 87.2 67" enable-background="new 0 0 87.2 67" xml:space="preserve">
<g id="Background" display="none">
	<path display="inline" fill="#A6A6BC" d="M104.5,174.8c-0.1-4.4,0.5-8.9,1-13.3c-0.2-4.1-0.4-8.1-0.4-12.2c0-3.6,0-7.3,0-10.8
		c-0.1-49.6-0.3-99-0.3-149h-30c-32.8,1-65.6,0-98.4-0.1c-0.1,33.9-1.2,67.9-0.9,101.8c0.3,30.8,0.5,61.6,0.6,92.3
		c15.6,0.3,31.2,0.7,46.8,0.8c3.6,0,7.2,0.1,10.7,0.1h28.6c13-1.5,26.4-0.6,39.4,0c1-0.2,2-0.4,3.1-0.6c-0.1-2.2-0.3-4.5-0.3-6.7
		C104.4,176.4,104.4,175.6,104.5,174.8z"/>
	<path display="inline" fill="#A6A6BC" d="M104.5,174.7c-0.1-3.2,0.2-6.5,0.6-9.7c0-0.4,0-0.8,0-1.2c0-7.9,0-15.8-0.1-23.7
		c-0.1-16.5-0.2-32.9-0.2-49.4c0-0.4,0.1-0.9,0.1-1.2c-0.9-10.5-0.4-21.1,0-31.7c0-3.5,0-7,0-10.5c-1.8-6-0.5-14.3-0.4-19.8
		c0-6,0.2-11.9,0.3-17.9c0-6.6,0-13.2,0-19.8C61.9-10.1,19.1-9.4-23.7-9.2c0,0.2,0,0.3,0,0.5c0,0.1,0,0.2,0,0.2c0,5-0.1,10-0.1,15
		c-0.2,20.1-0.6,40.2-0.8,60.2c0,7,0.2,13.9,0.4,20.9c0.6,16,1.1,31.8,0.5,47.8c-0.5,11.6,0.3,23.1-0.3,34.7c0,2.7,0,5.4,0,8.2
		c0.1,1.8,0.2,3.6,0.3,5.4c15.5,0.3,31,0.7,46.5,0.8c0,0,0.1,0,0.1,0c13.9-0.1,27.8-0.1,41.7-0.1c8.3-0.8,16.7-0.6,25-0.3
		c0.3-0.1,0.5-0.2,0.8-0.3c1.2-0.5,2.5-0.3,3.6,0.4c3.5-0.2,6.9-0.2,10.4-0.2c0.1,0,0.2,0,0.3,0c-0.1-2.2-0.3-4.4-0.3-6.6
		C104.4,176.4,104.4,175.6,104.5,174.7z"/>
</g>
<g id="Objects">
	<g>
		<g display="none">
			<g display="inline">
				<path fill="#FF0051" d="M-47.5,36.5c0,13.9-8.6,28.8-19.1,28.8c-10.6,0-19.1-14.9-19.1-28.8c0-13.9,8.6-21.5,19.1-21.5
					C-56,15.1-47.5,22.6-47.5,36.5z"/>
				<g>
					<g>
						<g>
							<polygon fill="#FFBF00" points="-79.4,32.5 -81.6,36.6 -79.4,40.7 -77.3,36.6 							"/>
							<polygon fill="#FFBF00" points="-75.2,32.5 -77.3,36.6 -75.2,40.7 -73,36.6 							"/>
							<polygon fill="#FFBF00" points="-70.9,32.5 -73,36.6 -70.9,40.7 -68.8,36.6 							"/>
							<polygon fill="#FFBF00" points="-66.6,32.5 -68.8,36.6 -66.6,40.7 -64.5,36.6 							"/>
							<polygon fill="#FFBF00" points="-62.3,32.5 -64.5,36.6 -62.3,40.7 -60.2,36.6 							"/>
							<polygon fill="#FFBF00" points="-58.1,32.5 -60.2,36.6 -58.1,40.7 -55.9,36.6 							"/>
							<polygon fill="#FFBF00" points="-53.8,32.5 -55.9,36.6 -53.8,40.7 -51.7,36.6 							"/>
							<polygon fill="#6E00EB" points="-77.3,34.1 -78.8,36.6 -77.3,39.2 -75.8,36.6 							"/>
							<polygon fill="#6E00EB" points="-81.6,34.1 -83.1,36.6 -81.6,39.2 -80.1,36.6 							"/>
							<polygon fill="#6E00EB" points="-73,34.1 -74.5,36.6 -73,39.2 -71.5,36.6 							"/>
							<polygon fill="#6E00EB" points="-68.8,34.1 -70.3,36.6 -68.8,39.2 -67.2,36.6 							"/>
							<polygon fill="#6E00EB" points="-64.5,34.1 -66,36.6 -64.5,39.2 -63,36.6 							"/>
							<polygon fill="#6E00EB" points="-60.2,34.1 -61.7,36.6 -60.2,39.2 -58.7,36.6 							"/>
							<polygon fill="#6E00EB" points="-55.9,34.1 -57.4,36.6 -55.9,39.2 -54.4,36.6 							"/>
							<polygon fill="#6E00EB" points="-51.7,34.1 -53.2,36.6 -51.7,39.2 -50.1,36.6 							"/>
						</g>
					</g>
					<g>
						<g>
							<polygon fill="#FFBF00" points="-79.4,49.6 -81.6,53.8 -79.4,57.9 -77.3,53.8 							"/>
							<polygon fill="#FFBF00" points="-75.2,49.6 -77.3,53.8 -75.2,57.9 -73,53.8 							"/>
							<polygon fill="#FFBF00" points="-70.9,49.6 -73,53.8 -70.9,57.9 -68.8,53.8 							"/>
							<polygon fill="#FFBF00" points="-66.6,49.6 -68.8,53.8 -66.6,57.9 -64.5,53.8 							"/>
							<polygon fill="#FFBF00" points="-62.3,49.6 -64.5,53.8 -62.3,57.9 -60.2,53.8 							"/>
							<polygon fill="#FFBF00" points="-58.1,49.6 -60.2,53.8 -58.1,57.9 -55.9,53.8 							"/>
							<polygon fill="#FFBF00" points="-53.8,49.6 -55.9,53.8 -53.8,57.9 -51.7,53.8 							"/>
							<polygon fill="#6E00EB" points="-77.3,51.2 -78.8,53.8 -77.3,56.3 -75.8,53.8 							"/>
							<polygon fill="#6E00EB" points="-81.6,51.2 -83.1,53.8 -81.6,56.3 -80.1,53.8 							"/>
							<polygon fill="#6E00EB" points="-73,51.2 -74.5,53.8 -73,56.3 -71.5,53.8 							"/>
							<polygon fill="#6E00EB" points="-68.8,51.2 -70.3,53.8 -68.8,56.3 -67.2,53.8 							"/>
							<polygon fill="#6E00EB" points="-64.5,51.2 -66,53.8 -64.5,56.3 -63,53.8 							"/>
							<polygon fill="#6E00EB" points="-60.2,51.2 -61.7,53.8 -60.2,56.3 -58.7,53.8 							"/>
							<polygon fill="#6E00EB" points="-55.9,51.2 -57.4,53.8 -55.9,56.3 -54.4,53.8 							"/>
							<polygon fill="#6E00EB" points="-51.7,51.2 -53.2,53.8 -51.7,56.3 -50.1,53.8 							"/>
						</g>
					</g>
					<g>
						<g>
							<polygon fill="#FFBF00" points="-77.3,41.1 -79.4,45.2 -77.3,49.3 -75.2,45.2 							"/>
							<polygon fill="#FFBF00" points="-73,41.1 -75.2,45.2 -73,49.3 -70.9,45.2 							"/>
							<polygon fill="#FFBF00" points="-68.8,41.1 -70.9,45.2 -68.8,49.3 -66.6,45.2 							"/>
							<polygon fill="#FFBF00" points="-64.5,41.1 -66.6,45.2 -64.5,49.3 -62.3,45.2 							"/>
							<polygon fill="#FFBF00" points="-60.2,41.1 -62.3,45.2 -60.2,49.3 -58.1,45.2 							"/>
							<polygon fill="#FFBF00" points="-55.9,41.1 -58.1,45.2 -55.9,49.3 -53.8,45.2 							"/>
							<polygon fill="#6E00EB" points="-75.2,42.6 -76.7,45.2 -75.2,47.7 -73.7,45.2 							"/>
							<polygon fill="#6E00EB" points="-79.4,42.6 -81,45.2 -79.4,47.7 -77.9,45.2 							"/>
							<polygon fill="#6E00EB" points="-70.9,42.6 -72.4,45.2 -70.9,47.7 -69.4,45.2 							"/>
							<polygon fill="#6E00EB" points="-66.6,42.6 -68.1,45.2 -66.6,47.7 -65.1,45.2 							"/>
							<polygon fill="#6E00EB" points="-62.3,42.6 -63.9,45.2 -62.3,47.7 -60.8,45.2 							"/>
							<polygon fill="#6E00EB" points="-58.1,42.6 -59.6,45.2 -58.1,47.7 -56.5,45.2 							"/>
							<polygon fill="#6E00EB" points="-53.8,42.6 -55.3,45.2 -53.8,47.7 -52.3,45.2 							"/>
						</g>
					</g>
				</g>
				<g>
					<g>
						<ellipse fill="#FF9900" cx="-75.3" cy="63.5" rx="1.4" ry="3"/>
						<ellipse fill="#FF9900" cx="-71.4" cy="63.5" rx="1.4" ry="3"/>
						<ellipse fill="#FFAA2B" cx="-73.3" cy="63.5" rx="1.6" ry="3.7"/>
					</g>
					<g>
						<ellipse fill="#FF9900" cx="-61.8" cy="63.5" rx="1.4" ry="3"/>
						<ellipse fill="#FF9900" cx="-58" cy="63.5" rx="1.4" ry="3"/>
						<ellipse fill="#FFAA2B" cx="-59.9" cy="63.5" rx="1.6" ry="3.7"/>
					</g>
				</g>
				<g>
					<g>
						<g>
							<path fill="#6E00EB" d="M-77.4,27.4c0,0,3.6,18.4-6.3,32.6c0,0-13.3-23.4-0.8-36.4L-77.4,27.4z"/>
						</g>
						<polygon fill="#FFBF00" points="-86.2,35.2 -87.1,40.6 -87.3,42 -79.3,39.1 -85,34.1 						"/>
						<polygon fill="#FFBF00" points="-85.2,28.4 -85,33.1 -85,34.2 -79,30.5 -85,26.4 						"/>
						<g>
							<defs>
								<path id="SVGID_1_" d="M-77.4,27.4c0,0,3.6,18.4-6.3,32.6c0,0-13.3-23.4-0.8-36.4L-77.4,27.4z"/>
							</defs>
							<clipPath id="SVGID_2_">
								<use xlink:href="#SVGID_1_"  overflow="visible"/>
							</clipPath>
							<polygon clip-path="url(#SVGID_2_)" fill="#FFBF00" points="-87.8,42.5 -89.7,47.6 -90.2,48.8 -81.2,47.9 -87.3,41.2 							
								"/>
						</g>
						<path fill="#FF0051" d="M-88.9,46.2c4.2-8,4.9-16.6,4.7-22.4l-0.4-0.2C-90.6,29.9-90.5,38.8-88.9,46.2z"/>
						<path fill="#00B1CC" d="M-77.4,27.4l-2.1-1.1c0.6,4.8,1.4,18.6-6,30c1,2.3,1.8,3.7,1.8,3.7C-73.8,45.8-77.4,27.4-77.4,27.4z"
							/>
						<circle fill="#FFEDD6" cx="-85.4" cy="50.7" r="1"/>
						<circle fill="#FFEDD6" cx="-82.6" cy="43.1" r="1"/>
						<circle fill="#FFEDD6" cx="-80.8" cy="34.4" r="1"/>
					</g>
					<g>
						<g>
							<path fill="#6E00EB" d="M-55.8,27.4c0,0-3.6,18.4,6.3,32.6c0,0,13.3-23.4,0.8-36.4L-55.8,27.4z"/>
						</g>
						<polygon fill="#FFBF00" points="-47,35.2 -46.1,40.6 -45.9,42 -54,39.1 -48.2,34.1 						"/>
						<polygon fill="#FFBF00" points="-48,28.4 -48.2,33.1 -48.3,34.2 -54.2,30.5 -48.2,26.4 						"/>
						<g>
							<defs>
								<path id="SVGID_3_" d="M-55.8,27.4c0,0-3.6,18.4,6.3,32.6c0,0,13.3-23.4,0.8-36.4L-55.8,27.4z"/>
							</defs>
							<clipPath id="SVGID_4_">
								<use xlink:href="#SVGID_3_"  overflow="visible"/>
							</clipPath>
							<polygon clip-path="url(#SVGID_4_)" fill="#FFBF00" points="-45.4,42.5 -43.5,47.6 -43,48.8 -52,47.9 -45.9,41.2 							"/>
						</g>
						<path fill="#FF0051" d="M-44.4,46.2c-4.2-8-4.9-16.6-4.7-22.4l0.4-0.2C-42.6,29.9-42.7,38.8-44.4,46.2z"/>
						<path fill="#00B1CC" d="M-55.8,27.4l2.1-1.1c-0.6,4.8-1.4,18.6,6,30c-1,2.3-1.8,3.7-1.8,3.7C-59.4,45.8-55.8,27.4-55.8,27.4z"
							/>
						<circle fill="#FFEDD6" cx="-47.9" cy="50.7" r="1"/>
						<circle fill="#FFEDD6" cx="-50.6" cy="43.1" r="1"/>
						<circle fill="#FFEDD6" cx="-52.4" cy="34.4" r="1"/>
					</g>
				</g>
				<g>
					<path fill="#FF0051" d="M-42.3-2.9c0,0-6.4,13-23.4,13V1.4C-65.7,1.4-52-5.8-42.3-2.9z"/>
					<path fill="#FF0051" d="M-91.1-2.9c0,0,6.4,13,23.4,13V1.4C-67.7,1.4-81.4-5.8-91.1-2.9z"/>
				</g>
				<path fill="#FFBF00" d="M-42.4,13.8c0,9-10.8,16.1-24.2,16.1c-13.4,0-24.2-7-24.2-16.1S-80-2.6-66.6-2.6
					C-53.3-2.6-42.4,4.7-42.4,13.8z"/>
				<g>
					<g>
						<g>
							<circle fill="#FFEDD6" cx="-77.2" cy="13.7" r="10.7"/>
						</g>
						<g>
							<g>
								<circle fill="#FF0051" cx="-77.2" cy="13.7" r="6.7"/>
							</g>
							<g>
								<circle fill="#010021" cx="-77.2" cy="13.7" r="4.2"/>
							</g>
							<circle fill="#FFFFFF" cx="-79.9" cy="11" r="1.6"/>
						</g>
					</g>
					<g>
						<g>
							<circle fill="#FFEDD6" cx="-56.1" cy="13.7" r="10.7"/>
						</g>
						<g>
							<g>
								<circle fill="#FF0051" cx="-56.1" cy="13.7" r="6.7"/>
							</g>
							<g>
								<circle fill="#010021" cx="-56.1" cy="13.7" r="4.2"/>
							</g>
							<circle fill="#FFFFFF" cx="-58.9" cy="11" r="1.6"/>
						</g>
					</g>
				</g>
				<g>
					<path fill="#FF0051" d="M-66.6,0.9l6.9-0.5c0.2-2.7,2.8-6.2,2.8-6.2C-62.6-4-66.6,0.9-66.6,0.9z"/>
					<path fill="#FF0051" d="M-76.4-5.9c0,0,2.6,3.5,2.8,6.2l6.9,0.5C-66.6,0.9-70.6-4-76.4-5.9z"/>
				</g>
				<path fill="#6E00EB" d="M-66.6,0.4c-8.5-3-18.8-6.4-24.5-3.4c0,0,18.8,1.8,24.5,20.8C-60.9-1.2-42.1-2.9-42.1-2.9
					C-47.8-6-58.1-2.6-66.6,0.4z"/>
				<g>
					<path fill="#00B1CC" d="M-66.6,16.6c-1,0-1.8,0-3.5,1.1c0,0,1.6,3,3.5,4.4c1.9-1.4,3.5-4.4,3.5-4.4
						C-64.8,16.6-65.6,16.6-66.6,16.6z"/>
				</g>
				<g>
					<polygon fill="#FFBF00" points="-66.6,1.5 -70.5,6.7 -66.6,12 -62.8,6.7 					"/>
					<rect x="-69.7" y="3.5" fill="#00B1CC" width="6" height="6"/>
					<polygon fill="#FF0051" points="-66.6,3.2 -69.2,6.7 -66.6,10.2 -64,6.7 					"/>
					<polygon fill="#FFEDD6" points="-66.6,5.2 -67.7,6.7 -66.6,8.2 -65.5,6.7 					"/>
				</g>
				<g>
					<g>
						<g>
							<g>
								
									<ellipse transform="matrix(0.9931 -0.1177 0.1177 0.9931 -0.7346 -8.4363)" fill="#FFBF00" cx="-71.8" cy="2" rx="1.2" ry="1.2"/>
								
									<ellipse transform="matrix(0.9931 -0.1177 0.1177 0.9931 -0.573 -8.784)" fill="#FFEDD6" cx="-74.7" cy="0.5" rx="0.8" ry="0.8"/>
								
									<ellipse transform="matrix(0.9931 -0.1177 0.1177 0.9931 -0.4414 -9.0794)" fill="#FFBF00" cx="-77.1" cy="-0.8" rx="0.7" ry="0.7"/>
							</g>
						</g>
					</g>
					<g>
						<g>
							<g>
								
									<ellipse transform="matrix(0.1177 -0.9931 0.9931 0.1177 -56.1811 -59.2247)" fill="#FFBF00" cx="-61.4" cy="2" rx="1.2" ry="1.2"/>
								
									<ellipse transform="matrix(0.1177 -0.9931 0.9931 0.1177 -52.1274 -57.7485)" fill="#FFEDD6" cx="-58.6" cy="0.5" rx="0.8" ry="0.8"/>
								
									<ellipse transform="matrix(0.1177 -0.9931 0.9931 0.1177 -48.7191 -56.4359)" fill="#FFBF00" cx="-56.1" cy="-0.8" rx="0.7" ry="0.7"/>
							</g>
						</g>
					</g>
				</g>
			</g>
			<path opacity="0.16" fill="#170000" d="M-23.8-114.4c0-6.7-3.4-12.9-9.2-17.8c6.7-5.7,9.8-11.5,9.8-11.5
				c-7.2-3.8-18.4-1.9-29.7,1.5c1.5-3.5,3.8-6.6,3.8-6.6c-4.3,1.4-8.1,3.6-11,5.9c-2-0.2-4.3-0.5-6.3-0.5h-0.2v120h0.2
				c2.1,0,4.3-0.5,6.3-1.2c0.4,1.8,1.3,2.9,2.2,2.9c0.5,0,1-0.4,1.4-0.9c0.5,1.3,1.3,2.1,2.1,2.1s1.6-0.8,2.1-2.1
				c0.4,0.6,0.8,0.9,1.3,0.9c1.3,0,2.4-2.3,2.4-5.2c0-1.7-0.4-3.2-1-4.2c2-1.9,3.9-4,5.6-6.4l0.4,0.7l2.5-4.8c1.4,2.9,3,5.7,4.9,8.5
				c0,0,4.9-8.5,8.1-20l3.4,0.4l-0.8-2.2l-1.3-3.4c0-0.1,0-0.1,0-0.2c0,0,0,0,0-0.1c0.1-0.4,0.2-0.8,0.2-1.2c0,0,0-0.1,0-0.1
				c0.1-0.4,0.1-0.7,0.2-1.1c0-0.1,0-0.1,0-0.2c0.1-0.4,0.1-0.7,0.2-1.1c0-0.1,0-0.1,0-0.2c0.1-0.3,0.1-0.7,0.2-1c0-0.1,0-0.2,0-0.2
				c0-0.3,0.1-0.7,0.1-1c0-0.1,0-0.2,0-0.3c0-0.3,0.1-0.7,0.1-1c0-0.1,0-0.2,0-0.3c0-0.3,0.1-0.6,0.1-1c0-0.1,0-0.2,0-0.4
				c0-0.3,0-0.6,0.1-0.9c0-0.1,0-0.3,0-0.4c0-0.3,0-0.6,0-0.9c0-0.1,0-0.3,0-0.4c0-0.3,0-0.6,0-0.9c0-0.2,0-0.3,0-0.5
				c0-0.3,0-0.6,0-0.8c0-0.2,0-0.3,0-0.5c0-0.3,0-0.6,0-0.8c0-0.2,0-0.3,0-0.5c0-0.3,0-0.5-0.1-0.8c0-0.2,0-0.3,0-0.5
				c0-0.3,0-0.5-0.1-0.8c0-0.2,0-0.4-0.1-0.5c0-0.3-0.1-0.5-0.1-0.8c0-0.2-0.1-0.4-0.1-0.6c0-0.2-0.1-0.5-0.1-0.7
				c0-0.2-0.1-0.4-0.1-0.6c0-0.2-0.1-0.5-0.1-0.7c0-0.2-0.1-0.4-0.1-0.6c-0.1-0.2-0.1-0.5-0.2-0.7c0-0.2-0.1-0.4-0.1-0.6
				c-0.1-0.2-0.1-0.5-0.2-0.7c-0.1-0.2-0.1-0.4-0.2-0.6c-0.1-0.2-0.1-0.4-0.2-0.7c-0.1-0.2-0.1-0.4-0.2-0.6
				c-0.1-0.2-0.1-0.4-0.2-0.6c-0.1-0.2-0.2-0.4-0.2-0.6c-0.1-0.2-0.2-0.4-0.2-0.6c-0.1-0.2-0.2-0.4-0.3-0.6
				c-0.1-0.2-0.2-0.4-0.3-0.6c-0.1-0.2-0.2-0.4-0.3-0.6c-0.1-0.2-0.2-0.4-0.3-0.6c-0.1-0.2-0.2-0.4-0.3-0.6
				c-0.1-0.2-0.2-0.4-0.3-0.6c-0.1-0.2-0.2-0.4-0.4-0.6c-0.1-0.2-0.2-0.4-0.3-0.5c-0.1-0.2-0.3-0.4-0.4-0.6
				c-0.1-0.2-0.2-0.4-0.3-0.5c-0.1-0.2-0.3-0.4-0.5-0.6c-0.1-0.2-0.2-0.3-0.3-0.5c-0.2-0.2-0.3-0.4-0.5-0.7
				c-0.1-0.2-0.2-0.3-0.4-0.5c-0.2-0.2-0.4-0.5-0.6-0.7c-0.1-0.1-0.2-0.2-0.3-0.3C-27.6-101-23.8-107.4-23.8-114.4z"/>
		</g>
		<g display="none">
			<path display="inline" fill="#6E00EB" d="M64.7-94.1C64.7-77,54.1-58.6,41-58.6S17.4-77,17.4-94.1S28-120.6,41-120.6
				S64.7-111.3,64.7-94.1z"/>
			<g display="inline">
				<g>
					<polygon fill="#B752FF" points="30.8,-89.3 28.3,-91.5 28.3,-86.8 30.8,-84.6 33.3,-86.8 33.3,-91.5 					"/>
					<polygon fill="#B752FF" points="30.8,-98.6 28.3,-100.8 28.3,-96.1 30.8,-94 33.3,-96.1 33.3,-100.8 					"/>
				</g>
				<g>
					<polygon fill="#FFBF00" points="35.8,-93.6 33.3,-91.5 33.3,-86.8 35.8,-89 38.3,-86.8 38.3,-91.5 					"/>
					<polygon fill="#00B1CC" points="35.8,-98.3 33.3,-96.1 33.3,-91.5 35.8,-93.6 38.3,-91.5 38.3,-96.1 					"/>
				</g>
				<g>
					<polygon fill="#FFBF00" points="25.8,-93.6 23.3,-91.5 23.3,-86.8 25.8,-89 28.3,-86.8 28.3,-91.5 					"/>
					<polygon fill="#00B1CC" points="25.8,-98.3 23.3,-96.1 23.3,-91.5 25.8,-93.6 28.3,-91.5 28.3,-96.1 					"/>
				</g>
				<g>
					<polygon fill="#B752FF" points="30.8,-75.3 28.3,-77.5 28.3,-72.8 30.8,-70.7 33.3,-72.8 33.3,-77.5 					"/>
					<polygon fill="#FFBF00" points="30.8,-84.6 28.3,-86.8 28.3,-82.1 30.8,-80 33.3,-82.1 33.3,-86.8 					"/>
				</g>
				<g>
					<polygon fill="#FFBF00" points="35.8,-79.6 33.3,-77.5 33.3,-72.8 35.8,-75 38.3,-72.8 38.3,-77.5 					"/>
					<polygon fill="#00B1CC" points="35.8,-84.3 33.3,-82.2 33.3,-77.5 35.8,-79.7 38.3,-77.5 38.3,-82.2 					"/>
				</g>
				<g>
					<polygon fill="#B752FF" points="40.8,-89.3 38.3,-91.5 38.3,-86.8 40.8,-84.6 43.3,-86.8 43.3,-91.5 					"/>
					<polygon fill="#B752FF" points="40.8,-98.6 38.3,-100.8 38.3,-96.1 40.8,-94 43.3,-96.1 43.3,-100.8 					"/>
				</g>
				<g>
					<polygon fill="#FFBF00" points="45.8,-93.6 43.3,-91.5 43.3,-86.8 45.8,-89 48.3,-86.8 48.3,-91.5 					"/>
					<polygon fill="#00B1CC" points="45.8,-98.3 43.3,-96.1 43.3,-91.5 45.8,-93.6 48.3,-91.5 48.3,-96.1 					"/>
				</g>
				<g>
					<polygon fill="#B752FF" points="40.8,-75.3 38.3,-77.5 38.3,-72.8 40.8,-70.7 43.3,-72.8 43.3,-77.5 					"/>
					<polygon fill="#FFBF00" points="40.8,-84.6 38.3,-86.8 38.3,-82.1 40.8,-80 43.3,-82.1 43.3,-86.8 					"/>
				</g>
				<g>
					<polygon fill="#FFBF00" points="45.8,-79.6 43.3,-77.5 43.3,-72.8 45.8,-75 48.3,-72.8 48.3,-77.5 					"/>
					<polygon fill="#00B1CC" points="45.8,-84.3 43.3,-82.2 43.3,-77.5 45.8,-79.7 48.3,-77.5 48.3,-82.2 					"/>
				</g>
				<g>
					<polygon fill="#B752FF" points="50.8,-89.3 48.3,-91.5 48.3,-86.8 50.8,-84.6 53.3,-86.8 53.3,-91.5 					"/>
					<polygon fill="#B752FF" points="50.8,-98.6 48.3,-100.8 48.3,-96.1 50.8,-94 53.3,-96.1 53.3,-100.8 					"/>
				</g>
				<g>
					<polygon fill="#FFBF00" points="55.8,-93.6 53.3,-91.5 53.3,-86.8 55.8,-89 58.3,-86.8 58.3,-91.5 					"/>
					<polygon fill="#00B1CC" points="55.8,-98.3 53.3,-96.1 53.3,-91.5 55.8,-93.6 58.3,-91.5 58.3,-96.1 					"/>
				</g>
				<g>
					<polygon fill="#B752FF" points="50.8,-75.3 48.3,-77.5 48.3,-72.8 50.8,-70.7 53.3,-72.8 53.3,-77.5 					"/>
					<polygon fill="#FFBF00" points="50.8,-84.6 48.3,-86.8 48.3,-82.1 50.8,-80 53.3,-82.1 53.3,-86.8 					"/>
				</g>
				<g>
					<polygon fill="#FFBF00" points="55.8,-79.6 53.3,-77.5 53.3,-72.8 55.8,-75 58.3,-72.8 58.3,-77.5 					"/>
					<polygon fill="#00B1CC" points="55.8,-84.3 53.3,-82.2 53.3,-77.5 55.8,-79.7 58.3,-77.5 58.3,-82.2 					"/>
				</g>
				<g>
					<polygon fill="#FFBF00" points="25.8,-79.6 23.3,-77.5 23.3,-72.8 25.8,-75 28.3,-72.8 28.3,-77.5 					"/>
					<polygon fill="#00B1CC" points="25.8,-84.3 23.3,-82.2 23.3,-77.5 25.8,-79.7 28.3,-77.5 28.3,-82.2 					"/>
				</g>
			</g>
			<g display="inline">
				<g>
					<ellipse fill="#FF9900" cx="30.4" cy="-60.8" rx="1.7" ry="3.7"/>
					<ellipse fill="#FF9900" cx="35.1" cy="-60.8" rx="1.7" ry="3.7"/>
					<ellipse fill="#FFAA2B" cx="32.7" cy="-60.8" rx="2" ry="4.5"/>
				</g>
				<g>
					<ellipse fill="#FF9900" cx="46.9" cy="-60.8" rx="1.7" ry="3.7"/>
					<ellipse fill="#FF9900" cx="51.7" cy="-60.8" rx="1.7" ry="3.7"/>
					<ellipse fill="#FFAA2B" cx="49.3" cy="-60.8" rx="2" ry="4.5"/>
				</g>
			</g>
			<path display="inline" fill="#FFBF00" d="M27.2-105.4c0,0,4.4,22.7-7.7,40.3c0,0-16.5-28.9-1-45L27.2-105.4z"/>
			<path display="inline" fill="#FFBF00" d="M27.2-105.4c0,0,4.4,22.7-7.7,40.3c0,0-16.5-28.9-1-45L27.2-105.4z"/>
			<g display="inline">
				<defs>
					<path id="SVGID_5_" d="M27.2-105.4c0,0,4.4,22.7-7.7,40.3c0,0-16.5-28.9-1-45L27.2-105.4z"/>
				</defs>
				<clipPath id="SVGID_6_">
					<use xlink:href="#SVGID_5_"  overflow="visible"/>
				</clipPath>
				<g clip-path="url(#SVGID_6_)">
					<polygon fill="#00B1CC" points="24.3,-95.8 3.3,-106.9 3.3,-110.7 24.3,-99.6 					"/>
					<polygon fill="#6E00EB" points="24.3,-91.5 3.3,-102.6 3.3,-104.9 24.3,-93.9 					"/>
					<polygon fill="#00B1CC" points="21.3,-83.8 0.3,-94.9 0.3,-98.7 21.3,-87.6 					"/>
					<polygon fill="#6E00EB" points="21.3,-79.5 0.3,-90.6 0.3,-92.9 21.3,-81.9 					"/>
				</g>
			</g>
			<path display="inline" fill="#FF0051" d="M27.2-105.4l-4.7-2.5c0.5,7.5,0.1,21.3-7.3,33.1c2.1,5.8,4.3,9.7,4.3,9.7
				C31.6-82.7,27.2-105.4,27.2-105.4z"/>
			<path display="inline" fill="#FFBF00" d="M54.9-105.4c0,0-4.4,22.7,7.7,40.3c0,0,16.5-28.9,1-45L54.9-105.4z"/>
			<path display="inline" fill="#FFBF00" d="M54.9-105.4c0,0-4.4,22.7,7.7,40.3c0,0,16.5-28.9,1-45L54.9-105.4z"/>
			<g display="inline">
				<defs>
					<path id="SVGID_7_" d="M54.9-105.4c0,0-4.4,22.7,7.7,40.3c0,0,16.5-28.9,1-45L54.9-105.4z"/>
				</defs>
				<clipPath id="SVGID_8_">
					<use xlink:href="#SVGID_7_"  overflow="visible"/>
				</clipPath>
				<g clip-path="url(#SVGID_8_)">
					<polygon fill="#00B1CC" points="58.3,-95.8 79.3,-106.9 79.3,-110.7 58.3,-99.6 					"/>
					<polygon fill="#6E00EB" points="58.3,-91.5 79.3,-102.6 79.3,-104.9 58.3,-93.9 					"/>
					<polygon fill="#00B1CC" points="60.3,-83.8 81.3,-94.9 81.3,-98.7 60.3,-87.6 					"/>
					<polygon fill="#6E00EB" points="60.3,-79.5 81.3,-90.6 81.3,-92.9 60.3,-81.9 					"/>
				</g>
			</g>
			<path display="inline" fill="#FF0051" d="M54.9-105.4l4.7-2.5c-0.5,7.5-0.1,21.3,7.3,33.1c-2.1,5.8-4.3,9.7-4.3,9.7
				C50.4-82.7,54.9-105.4,54.9-105.4z"/>
			<g display="inline">
				<path fill="#6E00EB" d="M68.5-141.3c0,0-8.2,15.1-26.2,15.1v-10C42.3-136.2,57.6-144.6,68.5-141.3z"/>
				<path fill="#6E00EB" d="M13.2-141.3c0,0,8.2,15.1,26.2,15.1v-10C39.3-136.2,24-144.6,13.2-141.3z"/>
			</g>
			<path display="inline" fill="#00B1CC" d="M70.9-122.2c0,11.1-13.4,19.8-29.9,19.8s-29.9-8.7-29.9-19.8
				c0-11.1,13.4-20.2,29.9-20.2S70.9-133.4,70.9-122.2z"/>
			<g display="inline">
				<g>
					<g>
						<circle fill="#FFEDD6" cx="28" cy="-122.3" r="13.2"/>
					</g>
					<g>
						<g>
							<circle fill="#00B1CC" cx="28" cy="-122.3" r="8.3"/>
						</g>
						<g>
							<circle fill="#010021" cx="28" cy="-122.3" r="5.2"/>
						</g>
						<circle fill="#FFFFFF" cx="24.6" cy="-125.7" r="1.9"/>
					</g>
				</g>
				<g>
					<g>
						<circle fill="#FFEDD6" cx="54.1" cy="-122.3" r="13.2"/>
					</g>
					<g>
						<g>
							<circle fill="#00B1CC" cx="54.1" cy="-122.3" r="8.3"/>
						</g>
						<g>
							<circle fill="#010021" cx="54.1" cy="-122.3" r="5.2"/>
						</g>
						<circle fill="#FFFFFF" cx="50.6" cy="-125.7" r="1.9"/>
					</g>
				</g>
			</g>
			<g display="inline">
				<path fill="#FF0051" d="M41-138.1c-9.5-3.5-21-6.7-27.4-3.2c0,0,21,2,27.4,24.2c6.4-22.1,27.4-24.2,27.4-24.2
					C62-144.8,50.6-141.6,41-138.1z"/>
			</g>
			<path display="inline" fill="#FFBF00" d="M41-118.8c-1.2,0-2.3,0-4.4,1.4c0,0,2,3.8,4.4,5.5c2.4-1.7,4.4-5.5,4.4-5.5
				C43.3-118.7,42.2-118.8,41-118.8z"/>
			<g display="inline">
				<path fill="#FFBF00" d="M41-140.6c-5.6-2.1-12.4-4-16.2-1.9c0,0,12.4,1.2,16.2,14.3c3.8-13.1,16.2-14.3,16.2-14.3
					C53.5-144.5,46.7-142.6,41-140.6z"/>
			</g>
			<g display="inline">
				<g>
					<polygon fill="#FFBF00" points="45.2,-132.9 44.1,-131.2 45.2,-129.6 46.3,-131.2 					"/>
					<polygon fill="#FFEDD6" points="47.9,-135.5 46.9,-134 47.9,-132.5 48.9,-134 					"/>
					<polygon fill="#FFBF00" points="50.5,-137.6 49.7,-136.4 50.5,-135.3 51.2,-136.4 					"/>
					<polygon fill="#FFEDD6" points="52.7,-139.2 52,-138.2 52.7,-137.2 53.4,-138.2 					"/>
					<polygon fill="#FFBF00" points="55,-140.1 54.4,-139.4 55,-138.6 55.5,-139.4 					"/>
				</g>
				<g>
					<polygon fill="#FFBF00" points="36.8,-132.9 37.9,-131.2 36.8,-129.6 35.7,-131.2 					"/>
					<polygon fill="#FFEDD6" points="34.2,-135.5 35.2,-134 34.2,-132.5 33.2,-134 					"/>
					<polygon fill="#FFBF00" points="31.6,-137.6 32.4,-136.4 31.6,-135.3 30.8,-136.4 					"/>
					<polygon fill="#FFEDD6" points="29.4,-139.2 30,-138.2 29.4,-137.2 28.7,-138.2 					"/>
					<polygon fill="#FFBF00" points="27.1,-140.1 27.6,-139.4 27.1,-138.6 26.6,-139.4 					"/>
				</g>
			</g>
			<g display="inline">
				<polygon fill="#6E00EB" points="41,-140.3 39.5,-137.8 41,-135.4 42.6,-137.8 				"/>
				<polygon fill="#FF0051" points="41,-136.6 39.5,-134.2 41,-131.7 42.6,-134.2 				"/>
			</g>
			<g display="inline">
				<polygon fill="#00B1CC" points="41,-132.6 38.1,-128.3 41,-123.9 43.9,-128.3 				"/>
				<polygon fill="#FFEDD6" points="41,-130.8 39.4,-128.3 41,-125.8 42.7,-128.3 				"/>
				<polygon fill="#FF0051" points="41,-129.4 40.3,-128.3 41,-127.2 41.8,-128.3 				"/>
			</g>
			<g display="inline">
				<g>
					<polygon fill="#6E00EB" points="21.4,-77.6 18.7,-73.9 19.3,-69.4 22,-73.1 					"/>
					<polygon fill="#6E00EB" points="24.6,-90 21.9,-86.4 22.5,-81.9 25.2,-85.5 					"/>
					<polygon fill="#6E00EB" points="25.2,-102.8 23.4,-98.7 25.1,-94.4 26.9,-98.6 					"/>
					<polygon fill="#FFBF00" points="22.5,-81.9 21.1,-80 21.4,-77.6 22.8,-79.5 					"/>
					<polygon fill="#FFBF00" points="25.1,-94.4 24,-92.3 24.6,-90 25.7,-92.1 					"/>
				</g>
				<g>
					<polygon fill="#6E00EB" points="60.7,-77.6 63.4,-73.9 62.8,-69.4 60.1,-73.1 					"/>
					<polygon fill="#6E00EB" points="57.4,-90 60.2,-86.4 59.6,-81.9 56.8,-85.5 					"/>
					<polygon fill="#6E00EB" points="56.8,-102.8 58.6,-98.7 57,-94.4 55.2,-98.6 					"/>
					<polygon fill="#FFBF00" points="59.6,-81.9 61,-80 60.7,-77.6 59.2,-79.5 					"/>
					<polygon fill="#FFBF00" points="57,-94.4 58.1,-92.3 57.4,-90 56.3,-92.1 					"/>
				</g>
			</g>
			<path display="inline" opacity="0.16" fill="#170000" d="M70.9-122.2c0-5-2.7-9.5-7-13c3.2-3.2,4.6-6,4.6-6
				c-2.9-1.6-7-1.8-11.4-1.2c-2.8-1.4-6.9-0.8-11.1,0.4c-1.6-0.2-3.7-0.3-4.7-0.3v83.9c1,0,2.8-0.2,4.2-0.7c0.3,1.2,0.8,2.1,1.5,2.1
				c0.3,0,0.6-0.2,0.9-0.6c0.4,0.9,0.9,1.5,1.4,1.5s1.1-0.6,1.4-1.5c0.3,0.4,0.6,0.6,0.9,0.6c0.9,0,1.7-1.6,1.7-3.7
				c0-1.2-0.3-2.3-0.7-2.9c2.3-2.2,4.4-4.9,6.1-8c1,2.2,2.3,4.5,3.8,6.6c0,0,0,0,0,0c0,0,0,0,0,0c0,0,0,0,0,0c0,0,0,0,0,0
				c0,0,0,0,0,0c0,0,0.1-0.1,0.1-0.2c0,0,0,0,0,0c0,0,0-0.1,0.1-0.1c0,0,0,0,0,0c1.9-3.5,14.9-29,1.3-44.1
				C68.4-113,70.9-117.4,70.9-122.2z"/>
		</g>
		<g display="none">
			<path display="inline" fill="#FF0051" d="M-142.5,79.2c0,24.4-15.1,50.6-33.6,50.6c-18.6,0-33.6-26.2-33.6-50.6
				c0-24.4,15.1-37.7,33.6-37.7C-157.6,41.5-142.5,54.8-142.5,79.2z"/>
			<g display="inline">
				<g>
					<g>
						<g>
							<polygon fill="#6E00EB" points="-188.7,71.5 -191.7,69.1 -191.7,73.9 -188.7,76.3 -185.7,73.9 -185.7,69.1 							"/>
							<polygon fill="#FFBF00" points="-188.7,81.1 -185.7,83.5 -185.7,78.7 -188.7,76.3 -191.7,78.7 -191.7,83.5 							"/>
						</g>
					</g>
					<g>
						<polygon fill="#FF5C92" points="-194.8,72 -199.4,76.3 -194.8,80.6 -190.1,76.3 						"/>
						<polygon fill="#FF0051" points="-194.8,73.6 -197.6,76.3 -194.8,79 -191.9,76.3 						"/>
						<polygon fill="#FFBF00" points="-194.8,75 -196.2,76.3 -194.8,77.6 -193.3,76.3 						"/>
					</g>
					<g>
						<g>
							<polygon fill="#6E00EB" points="-176.2,71.5 -178.7,69.1 -178.7,73.9 -176.2,76.3 -173.7,73.9 -173.7,69.1 							"/>
							<polygon fill="#FFBF00" points="-176.2,81.1 -173.7,83.5 -173.7,78.7 -176.2,76.3 -178.7,78.7 -178.7,83.5 							"/>
						</g>
					</g>
					<polygon fill="#FF5C92" points="-182.4,72 -187,76.3 -182.4,80.6 -177.7,76.3 					"/>
					<polygon fill="#FF0051" points="-182.4,73.6 -185.2,76.3 -182.4,79 -179.5,76.3 					"/>
					<polygon fill="#FFBF00" points="-182.4,75 -183.8,76.3 -182.4,77.6 -180.9,76.3 					"/>
					<g>
						<g>
							<polygon fill="#6E00EB" points="-163.7,71.5 -166.7,69.1 -166.7,73.9 -163.7,76.3 -160.7,73.9 -160.7,69.1 							"/>
							<polygon fill="#FFBF00" points="-163.7,81.1 -160.7,83.5 -160.7,78.7 -163.7,76.3 -166.7,78.7 -166.7,83.5 							"/>
						</g>
					</g>
					<polygon fill="#FF5C92" points="-169.9,72 -174.6,76.3 -169.9,80.6 -165.3,76.3 					"/>
					<polygon fill="#FF0051" points="-169.9,73.6 -172.8,76.3 -169.9,79 -167.1,76.3 					"/>
					<polygon fill="#FFBF00" points="-169.9,75 -171.4,76.3 -169.9,77.6 -168.5,76.3 					"/>
					<polygon fill="#FF5C92" points="-157.5,72 -162.2,76.3 -157.5,80.6 -152.9,76.3 					"/>
					<polygon fill="#FF0051" points="-157.5,73.6 -160.4,76.3 -157.5,79 -154.7,76.3 					"/>
					<polygon fill="#FFBF00" points="-157.5,75 -159,76.3 -157.5,77.6 -156.1,76.3 					"/>
				</g>
				<g>
					<g>
						<g>
							<polygon fill="#6E00EB" points="-194.7,82 -197.7,79.6 -197.7,84.4 -194.7,86.8 -191.7,84.4 -191.7,79.6 							"/>
							<polygon fill="#FFBF00" points="-194.7,91.6 -191.7,94 -191.7,89.2 -194.7,86.8 -197.7,89.2 -197.7,94 							"/>
						</g>
					</g>
					<g>
						<g>
							<polygon fill="#6E00EB" points="-182.2,82 -184.7,79.6 -184.7,84.4 -182.2,86.8 -179.7,84.4 -179.7,79.6 							"/>
							<polygon fill="#FFBF00" points="-182.2,91.6 -179.7,94 -179.7,89.2 -182.2,86.8 -184.7,89.2 -184.7,94 							"/>
						</g>
					</g>
					<g>
						<polygon fill="#FF5C92" points="-188.6,82.5 -193.2,86.8 -188.6,91.1 -183.9,86.8 						"/>
						<polygon fill="#FF0051" points="-188.6,84.1 -191.4,86.8 -188.6,89.5 -185.7,86.8 						"/>
						<polygon fill="#FFBF00" points="-188.6,85.5 -190,86.8 -188.6,88.1 -187.1,86.8 						"/>
					</g>
					<g>
						<g>
							<polygon fill="#6E00EB" points="-169.7,82 -172.7,79.6 -172.7,84.4 -169.7,86.8 -166.7,84.4 -166.7,79.6 							"/>
							<polygon fill="#FFBF00" points="-169.7,91.6 -166.7,94 -166.7,89.2 -169.7,86.8 -172.7,89.2 -172.7,94 							"/>
						</g>
					</g>
					<polygon fill="#FF5C92" points="-176.2,82.5 -180.8,86.8 -176.2,91.1 -171.5,86.8 					"/>
					<polygon fill="#FF0051" points="-176.2,84.1 -179,86.8 -176.2,89.5 -173.3,86.8 					"/>
					<polygon fill="#FFBF00" points="-176.2,85.5 -177.6,86.8 -176.2,88.1 -174.7,86.8 					"/>
					<g>
						<g>
							<polygon fill="#6E00EB" points="-157.7,82 -160.7,79.6 -160.7,84.4 -157.7,86.8 -154.7,84.4 -154.7,79.6 							"/>
							<polygon fill="#FFBF00" points="-157.7,91.6 -154.7,94 -154.7,89.2 -157.7,86.8 -160.7,89.2 -160.7,94 							"/>
						</g>
					</g>
					<polygon fill="#FF5C92" points="-163.7,82.5 -168.4,86.8 -163.7,91.1 -159.1,86.8 					"/>
					<polygon fill="#FF0051" points="-163.7,84.1 -166.6,86.8 -163.7,89.5 -160.9,86.8 					"/>
					<polygon fill="#FFBF00" points="-163.7,85.5 -165.2,86.8 -163.7,88.1 -162.3,86.8 					"/>
				</g>
				<g>
					<g>
						<g>
							<polygon fill="#6E00EB" points="-188.7,92.4 -191.7,89.9 -191.7,94.8 -188.7,97.2 -185.7,94.8 -185.7,89.9 							"/>
							<polygon fill="#FFBF00" points="-188.7,102 -185.7,104.4 -185.7,99.6 -188.7,97.2 -191.7,99.6 -191.7,104.4 							"/>
						</g>
					</g>
					<g>
						<polygon fill="#FF5C92" points="-194.8,92.9 -199.4,97.2 -194.8,101.5 -190.1,97.2 						"/>
						<polygon fill="#FF0051" points="-194.8,94.5 -197.6,97.2 -194.8,99.8 -191.9,97.2 						"/>
						<polygon fill="#FFBF00" points="-194.8,95.9 -196.2,97.2 -194.8,98.5 -193.3,97.2 						"/>
					</g>
					<g>
						<g>
							<polygon fill="#6E00EB" points="-176.2,92.4 -178.7,89.9 -178.7,94.8 -176.2,97.2 -173.7,94.8 -173.7,89.9 							"/>
							<polygon fill="#FFBF00" points="-176.2,102 -173.7,104.4 -173.7,99.6 -176.2,97.2 -178.7,99.6 -178.7,104.4 							"/>
						</g>
					</g>
					<polygon fill="#FF5C92" points="-182.4,92.9 -187,97.2 -182.4,101.5 -177.7,97.2 					"/>
					<polygon fill="#FF0051" points="-182.4,94.5 -185.2,97.2 -182.4,99.8 -179.5,97.2 					"/>
					<polygon fill="#FFBF00" points="-182.4,95.9 -183.8,97.2 -182.4,98.5 -180.9,97.2 					"/>
					<g>
						<g>
							<polygon fill="#6E00EB" points="-163.7,92.4 -166.7,89.9 -166.7,94.8 -163.7,97.2 -160.7,94.8 -160.7,89.9 							"/>
							<polygon fill="#FFBF00" points="-163.7,102 -160.7,104.4 -160.7,99.6 -163.7,97.2 -166.7,99.6 -166.7,104.4 							"/>
						</g>
					</g>
					<polygon fill="#FF5C92" points="-169.9,92.9 -174.6,97.2 -169.9,101.5 -165.3,97.2 					"/>
					<polygon fill="#FF0051" points="-169.9,94.5 -172.8,97.2 -169.9,99.8 -167.1,97.2 					"/>
					<polygon fill="#FFBF00" points="-169.9,95.9 -171.4,97.2 -169.9,98.5 -168.5,97.2 					"/>
					<polygon fill="#FF5C92" points="-157.5,92.9 -162.2,97.2 -157.5,101.5 -152.9,97.2 					"/>
					<polygon fill="#FF0051" points="-157.5,94.5 -160.4,97.2 -157.5,99.8 -154.7,97.2 					"/>
					<polygon fill="#FFBF00" points="-157.5,95.9 -159,97.2 -157.5,98.5 -156.1,97.2 					"/>
				</g>
				<g>
					<g>
						<g>
							<polygon fill="#6E00EB" points="-194.7,102.9 -197.7,100.5 -197.7,105.3 -194.7,107.7 -191.7,105.3 -191.7,100.5 							"/>
							<polygon fill="#FFBF00" points="-194.7,112.5 -191.7,114.9 -191.7,110.1 -194.7,107.7 -197.7,110.1 -197.7,114.9 							"/>
						</g>
					</g>
					<g>
						<g>
							<polygon fill="#6E00EB" points="-182.2,102.9 -184.7,100.5 -184.7,105.3 -182.2,107.7 -179.7,105.3 -179.7,100.5 							"/>
							<polygon fill="#FFBF00" points="-182.2,112.5 -179.7,114.9 -179.7,110.1 -182.2,107.7 -184.7,110.1 -184.7,114.9 							"/>
						</g>
					</g>
					<g>
						<polygon fill="#FF5C92" points="-188.6,103.4 -193.2,107.7 -188.6,112 -183.9,107.7 						"/>
						<polygon fill="#FF0051" points="-188.6,105 -191.4,107.7 -188.6,110.3 -185.7,107.7 						"/>
						<polygon fill="#FFBF00" points="-188.6,106.4 -190,107.7 -188.6,109 -187.1,107.7 						"/>
					</g>
					<g>
						<g>
							<polygon fill="#6E00EB" points="-169.7,102.9 -172.7,100.5 -172.7,105.3 -169.7,107.7 -166.7,105.3 -166.7,100.5 							"/>
							<polygon fill="#FFBF00" points="-169.7,112.5 -166.7,114.9 -166.7,110.1 -169.7,107.7 -172.7,110.1 -172.7,114.9 							"/>
						</g>
					</g>
					<polygon fill="#FF5C92" points="-176.2,103.4 -180.8,107.7 -176.2,112 -171.5,107.7 					"/>
					<polygon fill="#FF0051" points="-176.2,105 -179,107.7 -176.2,110.3 -173.3,107.7 					"/>
					<polygon fill="#FFBF00" points="-176.2,106.4 -177.6,107.7 -176.2,109 -174.7,107.7 					"/>
					<g>
						<g>
							<polygon fill="#6E00EB" points="-157.7,102.9 -160.7,100.5 -160.7,105.3 -157.7,107.7 -154.7,105.3 -154.7,100.5 							"/>
							<polygon fill="#FFBF00" points="-157.7,112.5 -154.7,114.9 -154.7,110.1 -157.7,107.7 -160.7,110.1 -160.7,114.9 							"/>
						</g>
					</g>
					<polygon fill="#FF5C92" points="-163.7,103.4 -168.4,107.7 -163.7,112 -159.1,107.7 					"/>
					<polygon fill="#FF0051" points="-163.7,105 -166.6,107.7 -163.7,110.3 -160.9,107.7 					"/>
					<polygon fill="#FFBF00" points="-163.7,106.4 -165.2,107.7 -163.7,109 -162.3,107.7 					"/>
				</g>
			</g>
			<path display="inline" fill="#6E00EB" d="M-195.6,61.1c0,0,6.3,32.3-11,57.3c0,0-23.4-41.2-1.5-64L-195.6,61.1z"/>
			<g display="inline">
				<defs>
					<path id="SVGID_9_" d="M-195.6,61.1c0,0,6.3,32.3-11,57.3c0,0-23.4-41.2-1.5-64L-195.6,61.1z"/>
				</defs>
				<clipPath id="SVGID_10_">
					<use xlink:href="#SVGID_9_"  overflow="visible"/>
				</clipPath>
				<g clip-path="url(#SVGID_10_)">
					<polygon fill="#00B1CC" points="-205.7,76.6 -218.7,65.4 -218.7,75.3 -205.7,86.5 -192.7,75.3 -192.7,65.4 					"/>
					<polygon fill="#00B1CC" points="-205.7,94.1 -218.7,82.9 -218.7,92.8 -205.7,104 -192.7,92.8 -192.7,82.9 					"/>
					<polygon fill="#FFBF00" points="-205.7,85.3 -218.7,74.1 -218.7,84.1 -205.7,95.2 -192.7,84.1 -192.7,74.1 					"/>
				</g>
			</g>
			<path display="inline" fill="#6E00EB" d="M-156.7,61.1c0,0-6.3,32.3,11,57.3c0,0,23.4-41.2,1.5-64L-156.7,61.1z"/>
			<g display="inline">
				<defs>
					<path id="SVGID_11_" d="M-156.7,61.1c0,0-6.3,32.3,11,57.3c0,0,23.4-41.2,1.5-64L-156.7,61.1z"/>
				</defs>
				<clipPath id="SVGID_12_">
					<use xlink:href="#SVGID_11_"  overflow="visible"/>
				</clipPath>
				<g clip-path="url(#SVGID_12_)">
					<polygon fill="#00B1CC" points="-146.7,76.6 -133.7,65.4 -133.7,75.3 -146.7,86.5 -159.7,75.3 -159.7,65.4 					"/>
					<polygon fill="#00B1CC" points="-146.7,94.1 -133.7,82.9 -133.7,92.8 -146.7,104 -159.7,92.8 -159.7,82.9 					"/>
					<polygon fill="#FFBF00" points="-146.7,85.3 -133.7,74.1 -133.7,84.1 -146.7,95.2 -159.7,84.1 -159.7,74.1 					"/>
				</g>
			</g>
			<g display="inline">
				<path fill="#6E00EB" d="M-137.4,10.1c0,0-11.2,21.4-37.2,21.4V17.3C-174.7,17.3-152.9,5.4-137.4,10.1z"/>
				<path fill="#6E00EB" d="M-214.9,10.1c0,0,11.2,21.4,37.2,21.4V17.3C-177.7,17.3-199.4,5.4-214.9,10.1z"/>
			</g>
			<path display="inline" fill="#FFBF00" d="M-133.7,37.2c0,15.9-19,28.2-42.5,28.2c-23.5,0-42.5-12.4-42.5-28.2s19-28.7,42.5-28.7
				C-152.7,8.5-133.7,21.3-133.7,37.2z"/>
			<g display="inline">
				<g>
					<g>
						<circle fill="#FFEDD6" cx="-194.7" cy="37.2" r="18.8"/>
					</g>
					<g>
						<g>
							<circle fill="#FF0051" cx="-194.7" cy="37.2" r="11.8"/>
						</g>
						<g>
							<circle fill="#010021" cx="-194.7" cy="37.2" r="7.5"/>
						</g>
						<circle fill="#FFFFFF" cx="-199.6" cy="32.3" r="2.7"/>
					</g>
				</g>
				<g>
					<g>
						<circle fill="#FFEDD6" cx="-157.6" cy="37.2" r="18.8"/>
					</g>
					<g>
						<g>
							<circle fill="#FF0051" cx="-157.6" cy="37.2" r="11.8"/>
						</g>
						<g>
							<circle fill="#010021" cx="-157.6" cy="37.2" r="7.5"/>
						</g>
						<circle fill="#FFFFFF" cx="-162.5" cy="32.3" r="2.7"/>
					</g>
				</g>
			</g>
			<g display="inline">
				<path fill="#FF0051" d="M-176.2,14.6c-13.6-5-29.9-9.5-39-4.5c0,0,29.9,2.9,39,34.3c9.1-31.4,39-34.3,39-34.3
					C-146.3,5.1-162.6,9.6-176.2,14.6z"/>
			</g>
			<g display="inline">
				<path fill="#00B1CC" d="M-199.5,8.4c0,0,17.8,2.1,23.3,25.1c5.5-23,23.3-25.1,23.3-25.1C-158.3,4.7-194,4.7-199.5,8.4z"/>
			</g>
			<path display="inline" fill="#00B1CC" d="M-176.2,42.1c-1.7,0-3.2,0.1-6.2,2c0,0,2.8,5.3,6.2,7.8c3.4-2.4,6.2-7.8,6.2-7.8
				C-172.9,42.2-174.4,42.1-176.2,42.1z"/>
			<g display="inline">
				<g>
					<ellipse fill="#FF9900" cx="-191.3" cy="124.6" rx="2.4" ry="5.2"/>
					<ellipse fill="#FF9900" cx="-184.6" cy="124.6" rx="2.4" ry="5.2"/>
					<ellipse fill="#FFAA2B" cx="-187.9" cy="124.6" rx="2.8" ry="6.4"/>
				</g>
				<g>
					<ellipse fill="#FF9900" cx="-167.7" cy="124.6" rx="2.4" ry="5.2"/>
					<ellipse fill="#FF9900" cx="-161" cy="124.6" rx="2.4" ry="5.2"/>
					<ellipse fill="#FFAA2B" cx="-164.4" cy="124.6" rx="2.8" ry="6.4"/>
				</g>
			</g>
			<circle display="inline" fill="#FFBF00" cx="-176.2" cy="11.5" r="4.3"/>
			<circle display="inline" fill="#6E00EB" cx="-176.2" cy="11.5" r="2.3"/>
			<circle display="inline" fill="#FF0051" cx="-176.2" cy="19.2" r="1.8"/>
			<circle display="inline" fill="#FFBF00" cx="-176.2" cy="23.8" r="1.3"/>
			<g display="inline">
				<g>
					<polygon fill="#FFBF00" points="-172,25.4 -171.7,28.9 -168.5,25.1 					"/>
					<polygon fill="#6E00EB" points="-168.4,21.3 -168.2,24.8 -164.9,21.1 					"/>
					<polygon fill="#FFBF00" points="-164.2,17.3 -164.6,20.8 -160.7,17.7 					"/>
					<polygon fill="#6E00EB" points="-159.7,14.1 -160.4,17.6 -156.2,14.8 					"/>
					<polygon fill="#FFBF00" points="-154.7,11.3 -155.9,14.6 -151.4,12.5 					"/>
					<polygon fill="#6E00EB" points="-149.4,9.1 -150.9,12.3 -146.2,10.6 					"/>
				</g>
				<g>
					<polygon fill="#FFBF00" points="-180.3,25.4 -180.6,28.9 -183.9,25.1 					"/>
					<polygon fill="#6E00EB" points="-183.9,21.3 -184.1,24.8 -187.4,21.1 					"/>
					<polygon fill="#FFBF00" points="-188.1,17.3 -187.7,20.8 -191.6,17.7 					"/>
					<polygon fill="#6E00EB" points="-192.6,14.1 -191.9,17.6 -196.1,14.8 					"/>
					<polygon fill="#FFBF00" points="-197.6,11.3 -196.4,14.6 -200.9,12.5 					"/>
					<polygon fill="#6E00EB" points="-202.9,9.1 -201.4,12.3 -206.1,10.6 					"/>
				</g>
			</g>
			<g display="inline">
				<g>
					<polygon fill="#6E00EB" points="-172.7,16.4 -172.7,19.1 -163.5,10.7 					"/>
					<polygon fill="#FF0051" points="-170.7,11.2 -170.7,13.1 -164.4,8.8 					"/>
				</g>
				<g>
					<polygon fill="#6E00EB" points="-179.7,16.4 -179.7,19.1 -188.8,10.7 					"/>
					<polygon fill="#FF0051" points="-181.7,11.2 -181.7,13.1 -187.9,8.8 					"/>
				</g>
			</g>
			<path display="inline" opacity="0.16" fill="#170000" d="M-133.7,37.2c0-7.1-3.8-13.5-10-18.5c4.5-4.6,6.6-8.6,6.6-8.6
				c-4.1-2.2-9.5-2.6-15.6-1.8c-2.8-1.8-13-2.7-23-2.7v124.2c2,0,4.4-0.4,6.6-1.2c0.4,0.8,0.8,1.2,1.4,1.2c0.5,0,0.9-0.3,1.3-0.9
				c0.5,1.3,1.2,2.1,2,2.1c0.8,0,1.5-0.8,2-2.1c0.4,0.6,0.8,0.9,1.3,0.9c1.3,0,2.4-2.3,2.4-5.2c0-1-0.1-1.9-0.4-2.7
				c3.2-3.2,6.1-7.1,8.5-11.6c1.3,2.8,2.9,5.5,4.7,8.1c0,0,22.9-40.2,2.3-63.1C-137.3,50.4-133.7,44.1-133.7,37.2z"/>
		</g>
		<g>
			<path display="none" fill="#00B1CC" d="M76.9,77.2c0,24.4-15.1,50.6-33.6,50.6c-18.6,0-33.6-26.2-33.6-50.6
				c0-24.4,15.1-37.7,33.6-37.7C61.8,39.5,76.9,52.8,76.9,77.2z"/>
			<g display="none">
				<defs>
					<path id="SVGID_13_" d="M76.9,77.2c0,24.4-15.1,50.6-33.6,50.6c-18.6,0-33.6-26.2-33.6-50.6c0-24.4,15.1-37.7,33.6-37.7
						C61.8,39.5,76.9,52.8,76.9,77.2z"/>
				</defs>
				<clipPath id="SVGID_14_" display="inline">
					<use xlink:href="#SVGID_13_"  overflow="visible"/>
				</clipPath>
				<g display="inline" clip-path="url(#SVGID_14_)">
					<g>
						<g>
							<polygon fill="#FFBF00" points="27.7,74.5 17.4,74.5 22.5,66.7 							"/>
							<polygon fill="#12DFFF" points="27.7,78.5 17.4,78.5 22.5,70.7 							"/>
						</g>
						<g>
							<polygon fill="#FFBF00" points="48.4,74.5 38.1,74.5 43.3,66.7 							"/>
							<polygon fill="#12DFFF" points="48.4,78.5 38.1,78.5 43.3,70.7 							"/>
						</g>
						<g>
							<polygon fill="#FF0051" points="38,74.5 27.7,74.5 32.9,66.7 							"/>
							<polygon fill="#12DFFF" points="38,78.5 27.7,78.5 32.9,70.7 							"/>
						</g>
						<g>
							<polygon fill="#FFBF00" points="69.2,74.5 58.9,74.5 64,66.7 							"/>
							<polygon fill="#12DFFF" points="69.2,78.5 58.9,78.5 64,70.7 							"/>
						</g>
						<g>
							<polygon fill="#FF0051" points="58.8,74.5 48.5,74.5 53.6,66.7 							"/>
							<polygon fill="#12DFFF" points="58.8,78.5 48.5,78.5 53.6,70.7 							"/>
						</g>
					</g>
					<g>
						<g>
							<polygon fill="#FF0051" points="27.7,83.5 17.4,83.5 22.5,75.7 							"/>
							<polygon fill="#12DFFF" points="27.7,88.5 17.4,88.5 22.5,80.7 							"/>
						</g>
						<g>
							<polygon fill="#FF0051" points="48.4,83.5 38.1,83.5 43.3,75.7 							"/>
							<polygon fill="#12DFFF" points="48.4,88.5 38.1,88.5 43.3,80.7 							"/>
						</g>
						<g>
							<polygon fill="#FFBF00" points="38,83.5 27.7,83.5 32.9,75.7 							"/>
							<polygon fill="#12DFFF" points="38,88.5 27.7,88.5 32.9,80.7 							"/>
						</g>
						<g>
							<polygon fill="#FF0051" points="69.2,83.5 58.9,83.5 64,75.7 							"/>
							<polygon fill="#12DFFF" points="69.2,88.5 58.9,88.5 64,80.7 							"/>
						</g>
						<g>
							<polygon fill="#FFBF00" points="58.8,83.5 48.5,83.5 53.6,75.7 							"/>
							<polygon fill="#12DFFF" points="58.8,88.5 48.5,88.5 53.6,80.7 							"/>
						</g>
					</g>
					<g>
						<g>
							<polygon fill="#FFBF00" points="27.7,93.5 17.4,93.5 22.5,85.7 							"/>
							<polygon fill="#12DFFF" points="27.7,97.5 17.4,97.5 22.5,89.7 							"/>
						</g>
						<g>
							<polygon fill="#FFBF00" points="48.4,93.5 38.1,93.5 43.3,85.7 							"/>
							<polygon fill="#12DFFF" points="48.4,97.5 38.1,97.5 43.3,89.7 							"/>
						</g>
						<g>
							<polygon fill="#FF0051" points="38,93.5 27.7,93.5 32.9,85.7 							"/>
							<polygon fill="#12DFFF" points="38,97.5 27.7,97.5 32.9,89.7 							"/>
						</g>
						<g>
							<polygon fill="#FFBF00" points="69.2,93.5 58.9,93.5 64,85.7 							"/>
							<polygon fill="#12DFFF" points="69.2,97.5 58.9,97.5 64,89.7 							"/>
						</g>
						<g>
							<polygon fill="#FF0051" points="58.8,93.5 48.5,93.5 53.6,85.7 							"/>
							<polygon fill="#12DFFF" points="58.8,97.5 48.5,97.5 53.6,89.7 							"/>
						</g>
					</g>
					<g>
						<g>
							<polygon fill="#FF0051" points="27.7,102.5 17.4,102.5 22.5,94.7 							"/>
							<polygon fill="#12DFFF" points="27.7,106.5 17.4,106.5 22.5,98.7 							"/>
						</g>
						<g>
							<polygon fill="#FF0051" points="48.4,102.5 38.1,102.5 43.3,94.7 							"/>
							<polygon fill="#12DFFF" points="48.4,106.5 38.1,106.5 43.3,98.7 							"/>
						</g>
						<g>
							<polygon fill="#FFBF00" points="38,102.5 27.7,102.5 32.9,94.7 							"/>
							<polygon fill="#12DFFF" points="38,106.5 27.7,106.5 32.9,98.7 							"/>
						</g>
						<g>
							<polygon fill="#FF0051" points="69.2,102.5 58.9,102.5 64,94.7 							"/>
							<polygon fill="#12DFFF" points="69.2,106.5 58.9,106.5 64,98.7 							"/>
						</g>
						<g>
							<polygon fill="#FFBF00" points="58.8,102.5 48.5,102.5 53.6,94.7 							"/>
							<polygon fill="#12DFFF" points="58.8,106.5 48.5,106.5 53.6,98.7 							"/>
						</g>
					</g>
					<g>
						<g>
							<polygon fill="#FFBF00" points="27.7,111.5 17.4,111.5 22.5,103.7 							"/>
							<polygon fill="#00B1CC" points="27.7,115.5 17.4,115.5 22.5,107.7 							"/>
						</g>
						<g>
							<polygon fill="#FFBF00" points="48.4,111.5 38.1,111.5 43.3,103.7 							"/>
							<polygon fill="#00B1CC" points="48.4,115.5 38.1,115.5 43.3,107.7 							"/>
						</g>
						<g>
							<polygon fill="#FF0051" points="38,111.5 27.7,111.5 32.9,103.7 							"/>
							<polygon fill="#00B1CC" points="38,115.5 27.7,115.5 32.9,107.7 							"/>
						</g>
						<g>
							<polygon fill="#FFBF00" points="69.2,111.5 58.9,111.5 64,103.7 							"/>
							<polygon fill="#00B1CC" points="69.2,115.5 58.9,115.5 64,107.7 							"/>
						</g>
						<g>
							<polygon fill="#FF0051" points="58.8,111.5 48.5,111.5 53.6,103.7 							"/>
							<polygon fill="#00B1CC" points="58.8,115.5 48.5,115.5 53.6,107.7 							"/>
						</g>
					</g>
				</g>
			</g>
			<g display="none">
				<g display="inline">
					<ellipse fill="#FF9900" cx="28.1" cy="124.6" rx="2.4" ry="5.2"/>
					<ellipse fill="#FF9900" cx="34.9" cy="124.6" rx="2.4" ry="5.2"/>
					<ellipse fill="#FFAA2B" cx="31.5" cy="124.6" rx="2.8" ry="6.4"/>
				</g>
				<g display="inline">
					<ellipse fill="#FF9900" cx="51.7" cy="124.6" rx="2.4" ry="5.2"/>
					<ellipse fill="#FF9900" cx="58.4" cy="124.6" rx="2.4" ry="5.2"/>
					<ellipse fill="#FFAA2B" cx="55" cy="124.6" rx="2.8" ry="6.4"/>
				</g>
			</g>
			<g display="none">
				<g display="inline">
					<path fill="#FF0051" d="M23.5,61.1c0,0,6.3,32.3-11,57.3c0,0-23.4-41.2-1.5-64L23.5,61.1z"/>
					<path fill="#FFBF00" d="M24.6,73.2C20.9,79.4,14.2,84.7,5.8,87c-1.2,0.3-2.4,0.6-3.6,0.8c0.6,4.8,1.8,9.4,3.1,13.5
						c0.3-0.1,0.6-0.1,0.8-0.2c7.5-2.1,13.6-6.5,17.5-11.8C24.5,83.3,24.7,77.7,24.6,73.2z"/>
					<path fill="#6E00EB" d="M24,64.6C20.3,70.6,13.7,75.7,5.5,78c-1.3,0.4-2.5,0.6-3.8,0.8c-0.1,4.7,0.5,9.4,1.4,13.9
						c0.9-0.2,1.8-0.4,2.8-0.7c8.4-2.4,15.1-7.6,18.8-13.8C24.8,72.4,24.4,67.6,24,64.6z"/>
					<path fill="#00B1CC" d="M16.2,57.2l-5.1-2.8c-22,22.8,1.5,64,1.5,64c1.1-1.5,2.1-3.1,2.9-4.7C10.2,99.8,3.7,74.6,16.2,57.2z"/>
					<g>
						<polygon fill="#FFBF00" points="11.4,57.3 8.3,60.5 8.3,65.1 11.4,61.9 						"/>
						<polygon fill="#FFBF00" points="6.1,73.2 4.2,77.3 5.6,81.7 7.5,77.5 						"/>
						<polygon fill="#FFBF00" points="6.5,90.1 5.5,94.5 7.8,98.4 8.8,93.9 						"/>
						<polygon fill="#6E00EB" points="8.3,65.1 5.6,68.7 6.1,73.2 8.8,69.6 						"/>
						<polygon fill="#6E00EB" points="5.6,81.7 4.4,86 6.5,90 7.7,85.7 						"/>
						<polygon fill="#6E00EB" points="7.8,98.4 7.3,102.9 10,106.5 10.5,101.9 						"/>
						<polygon fill="#FFBF00" points="10,106.5 10.1,111 13.2,114.3 13.1,109.7 						"/>
					</g>
				</g>
				<g display="inline">
					<path fill="#FF0051" d="M63,61.1c0,0-6.3,32.3,11,57.3c0,0,23.4-41.2,1.5-64L63,61.1z"/>
					<path fill="#FFBF00" d="M61.9,73.2c3.7,6.3,10.4,11.5,18.8,13.9c1.2,0.3,2.4,0.6,3.6,0.8c-0.6,4.8-1.8,9.4-3.1,13.5
						c-0.3-0.1-0.6-0.1-0.8-0.2c-7.5-2.1-13.6-6.5-17.5-11.8C62,83.3,61.8,77.7,61.9,73.2z"/>
					<path fill="#6E00EB" d="M62.5,64.6C66.2,70.6,72.8,75.7,81,78c1.3,0.4,2.5,0.6,3.8,0.8c0.1,4.7-0.5,9.4-1.4,13.9
						c-0.9-0.2-1.8-0.4-2.8-0.7c-8.4-2.4-15.1-7.6-18.8-13.8C61.7,72.4,62.1,67.6,62.5,64.6z"/>
					<path fill="#00B1CC" d="M70.3,57.2l5.1-2.8c22,22.8-1.5,64-1.5,64c-1.1-1.5-2.1-3.1-2.9-4.7C76.3,99.8,82.9,74.6,70.3,57.2z"/>
					<g>
						<polygon fill="#FFBF00" points="75.1,57.3 78.2,60.5 78.3,65.1 75.2,61.9 						"/>
						<polygon fill="#FFBF00" points="80.4,73.2 82.3,77.3 80.9,81.7 79,77.5 						"/>
						<polygon fill="#FFBF00" points="80.1,90.1 81,94.5 78.7,98.4 77.7,93.9 						"/>
						<polygon fill="#6E00EB" points="78.3,65.1 81,68.7 80.4,73.2 77.7,69.6 						"/>
						<polygon fill="#6E00EB" points="80.9,81.7 82.1,86 80.1,90 78.8,85.7 						"/>
						<polygon fill="#6E00EB" points="78.7,98.4 79.2,102.9 76.5,106.5 76,101.9 						"/>
						<polygon fill="#FFBF00" points="76.5,106.5 76.5,111 73.3,114.3 73.4,109.7 						"/>
					</g>
				</g>
			</g>
			<g>
				<path fill="#00B1CC" d="M82.6,10.1c0,0-11.2,21.4-37.2,21.4V17.3C45.3,17.3,67.1,5.4,82.6,10.1z"/>
				<path fill="#00B1CC" d="M4.1,10.1c0,0,11.2,21.4,37.2,21.4V17.3C41.3,17.3,19.6,5.4,4.1,10.1z"/>
			</g>
			<path fill="#6E00EB" d="M85.7,37.2c0,15.9-19,28.2-42.5,28.2S0.8,53,0.8,37.2s19-28.7,42.5-28.7S85.7,21.3,85.7,37.2z"/>
			<g>
				<g>
					<g>
						<circle fill="#FFEDD6" cx="24.7" cy="37.2" r="18.8"/>
					</g>
					<g>
						<g>
							<circle fill="#FF0051" cx="24.7" cy="37.2" r="11.8"/>
						</g>
						<g>
							<circle fill="#010021" cx="24.7" cy="37.2" r="7.5"/>
						</g>
						<circle fill="#FFFFFF" cx="19.8" cy="32.3" r="2.7"/>
					</g>
				</g>
				<g>
					<g>
						<circle fill="#FFEDD6" cx="61.8" cy="37.2" r="18.8"/>
					</g>
					<g>
						<g>
							<circle fill="#FF0051" cx="61.8" cy="37.2" r="11.8"/>
						</g>
						<g>
							<circle fill="#010021" cx="61.8" cy="37.2" r="7.5"/>
						</g>
						<circle fill="#FFFFFF" cx="56.9" cy="32.3" r="2.7"/>
					</g>
				</g>
			</g>
			<g>
				<g>
					<path fill="#FFBF00" d="M42.9,14.8l21.2-1.1C64.8,8.1,72.8,1,72.8,1C55.2,4.9,42.9,14.8,42.9,14.8z"/>
					<path fill="#FFBF00" d="M13.4,0.8c0,0,8,7.1,8.6,12.7l21.2,1.1C43.3,14.6,31,4.7,13.4,0.8z"/>
				</g>
				<path fill="#FF0051" d="M43.3,14.6c-13.6-5-29.9-9.5-39-4.5c0,0,29.9,2.9,39,34.3c9.1-31.4,39-34.3,39-34.3
					C73.1,5.1,56.8,9.6,43.3,14.6z"/>
			</g>
			<g>
				<path fill="#FFBF00" d="M43.3,42.1c-1.7,0-3.2,0.1-6.2,2c0,0,2.8,5.3,6.2,7.8c3.4-2.4,6.2-7.8,6.2-7.8
					C46.5,42.2,45,42.1,43.3,42.1z"/>
			</g>
			<g>
				<g>
					<polygon fill="#FFBF00" points="43.3,19.3 40.3,16.2 40.3,23 43.3,26.2 46.3,23 46.3,16.2 					"/>
					<polygon fill="#FFBF00" points="43.3,26.4 40.3,23.3 40.3,30.1 43.3,33.3 46.3,30.1 46.3,23.3 					"/>
				</g>
				<polygon fill="#6E00EB" points="43.3,22.9 40.3,19.7 40.3,26.6 43.3,29.7 46.3,26.6 46.3,19.7 				"/>
				<polygon fill="#00B1CC" points="43.3,26.7 35.3,18.9 35.3,22 43.3,29.7 51.3,22 51.3,18.9 				"/>
			</g>
			<g>
				<g>
					<polygon fill="#6E00EB" points="65.1,11.4 60.2,12.2 57.3,16.2 62.2,15.4 					"/>
					<circle fill="#FFBF00" cx="54.8" cy="18.3" r="1.5"/>
					<circle fill="#FFBF00" cx="67.9" cy="10.7" r="1"/>
				</g>
				<g>
					<polygon fill="#6E00EB" points="21.4,11.4 26.3,12.2 29.2,16.2 24.3,15.4 					"/>
					<circle fill="#FFBF00" cx="31.7" cy="18.3" r="1.5"/>
					<circle fill="#FFBF00" cx="18.6" cy="10.7" r="1"/>
				</g>
			</g>
			<path opacity="0.16" fill="#170000" d="M58.4,63.4c5.5-1.5,11.7-2.5,15.9-6.6c0.7-0.7,1.5-1.1,2.3-1.3c-0.1-0.2-0.3-0.3-0.4-0.5
				c6-4.8,9.6-11,9.6-17.9c0-7.1-3.8-13.5-10-18.5c4.5-4.6,6.6-8.6,6.6-8.6c-4.1-2.3-9.7-2.6-15.8-1.8C69,4.4,72.8,1,72.8,1
				c-8.5,1.9-15.7,5.2-21,8.1c-2.8-0.4-5.5-0.6-8.5-0.6v57.8C48.4,65.8,53.3,64.8,58.4,63.4z"/>
		</g>
		<g display="none">
			<g display="inline">
				<g>
					<path fill="#00B1CC" d="M-142.5-74.4c0,24.4-15.1,50.6-33.6,50.6c-18.6,0-33.6-26.2-33.6-50.6c0-24.4,15.1-37.7,33.6-37.7
						C-157.6-112.1-142.5-98.8-142.5-74.4z"/>
					<g>
						<defs>
							<path id="SVGID_15_" d="M-142.5-74.4c0,24.4-15.1,50.6-33.6,50.6c-18.6,0-33.6-26.2-33.6-50.6c0-24.4,15.1-37.7,33.6-37.7
								C-157.6-112.1-142.5-98.8-142.5-74.4z"/>
						</defs>
						<clipPath id="SVGID_16_">
							<use xlink:href="#SVGID_15_"  overflow="visible"/>
						</clipPath>
						<g clip-path="url(#SVGID_16_)">
							<g>
								<g>
									<polygon fill="#12DFFF" points="-200.9,-70.9 -193.2,-78.5 -208.5,-78.5 									"/>
									<polygon fill="#FF0051" points="-200.9,-74.8 -195.2,-80.5 -206.5,-80.5 									"/>
								</g>
								<g>
									<polygon fill="#12DFFF" points="-184.4,-70.9 -176.8,-78.5 -192,-78.5 									"/>
									<polygon fill="#FF0051" points="-184.4,-74.8 -178.7,-80.5 -190.1,-80.5 									"/>
								</g>
								<g>
									<polygon fill="#12DFFF" points="-167.9,-70.9 -160.3,-78.5 -175.5,-78.5 									"/>
									<polygon fill="#FF0051" points="-167.9,-74.8 -162.2,-80.5 -173.6,-80.5 									"/>
								</g>
								<g>
									<polygon fill="#12DFFF" points="-151.4,-70.9 -143.8,-78.5 -159.1,-78.5 									"/>
									<polygon fill="#FF0051" points="-151.4,-74.8 -145.8,-80.5 -157.1,-80.5 									"/>
								</g>
							</g>
							<g>
								<g>
									<polygon fill="#12DFFF" points="-200.9,-35.9 -193.2,-43.5 -208.5,-43.5 									"/>
									<polygon fill="#FF0051" points="-200.9,-39.8 -195.2,-45.5 -206.5,-45.5 									"/>
								</g>
								<g>
									<polygon fill="#12DFFF" points="-184.4,-35.9 -176.8,-43.5 -192,-43.5 									"/>
									<polygon fill="#FF0051" points="-184.4,-39.8 -178.7,-45.5 -190.1,-45.5 									"/>
								</g>
								<g>
									<polygon fill="#12DFFF" points="-167.9,-35.9 -160.3,-43.5 -175.5,-43.5 									"/>
									<polygon fill="#FF0051" points="-167.9,-39.8 -162.2,-45.5 -173.6,-45.5 									"/>
								</g>
								<g>
									<polygon fill="#12DFFF" points="-151.4,-35.9 -143.8,-43.5 -159.1,-43.5 									"/>
									<polygon fill="#FF0051" points="-151.4,-39.8 -145.8,-45.5 -157.1,-45.5 									"/>
								</g>
							</g>
							<g>
								<g>
									<polygon fill="#12DFFF" points="-192.6,-61.9 -185,-69.5 -200.3,-69.5 									"/>
									<polygon fill="#FF0051" points="-192.6,-65.8 -187,-71.5 -198.3,-71.5 									"/>
								</g>
								<g>
									<polygon fill="#12DFFF" points="-176.1,-61.9 -168.5,-69.5 -183.8,-69.5 									"/>
									<polygon fill="#FF0051" points="-176.1,-65.8 -170.5,-71.5 -181.8,-71.5 									"/>
								</g>
								<g>
									<polygon fill="#12DFFF" points="-159.7,-61.9 -152,-69.5 -167.3,-69.5 									"/>
									<polygon fill="#FF0051" points="-159.7,-65.8 -154,-71.5 -165.3,-71.5 									"/>
								</g>
							</g>
							<g>
								<g>
									<polygon fill="#12DFFF" points="-200.9,-52.9 -193.2,-60.5 -208.5,-60.5 									"/>
									<polygon fill="#FF0051" points="-200.9,-57.8 -195.2,-63.5 -206.5,-63.5 									"/>
								</g>
								<g>
									<polygon fill="#12DFFF" points="-184.4,-52.9 -176.8,-60.5 -192,-60.5 									"/>
									<polygon fill="#FF0051" points="-184.4,-57.8 -178.7,-63.5 -190.1,-63.5 									"/>
								</g>
								<g>
									<polygon fill="#12DFFF" points="-167.9,-52.9 -160.3,-60.5 -175.5,-60.5 									"/>
									<polygon fill="#FF0051" points="-167.9,-57.8 -162.2,-63.5 -173.6,-63.5 									"/>
								</g>
								<g>
									<polygon fill="#12DFFF" points="-151.4,-52.9 -143.8,-60.5 -159.1,-60.5 									"/>
									<polygon fill="#FF0051" points="-151.4,-57.8 -145.8,-63.5 -157.1,-63.5 									"/>
								</g>
							</g>
							<g>
								<g>
									<polygon fill="#12DFFF" points="-192.6,-43.9 -185,-51.5 -200.3,-51.5 									"/>
									<polygon fill="#FF0051" points="-192.6,-48.8 -187,-54.5 -198.3,-54.5 									"/>
								</g>
								<g>
									<polygon fill="#12DFFF" points="-176.1,-43.9 -168.5,-51.5 -183.8,-51.5 									"/>
									<polygon fill="#FF0051" points="-176.1,-48.8 -170.5,-54.5 -181.8,-54.5 									"/>
								</g>
								<g>
									<polygon fill="#12DFFF" points="-159.7,-43.9 -152,-51.5 -167.3,-51.5 									"/>
									<polygon fill="#FF0051" points="-159.7,-48.8 -154,-54.5 -165.3,-54.5 									"/>
								</g>
							</g>
						</g>
					</g>
					<g>
						<g>
							<ellipse fill="#FF9900" cx="-191.3" cy="-27" rx="2.4" ry="5.2"/>
							<ellipse fill="#FF9900" cx="-184.6" cy="-27" rx="2.4" ry="5.2"/>
							<ellipse fill="#FFAA2B" cx="-187.9" cy="-27" rx="2.8" ry="6.4"/>
						</g>
						<g>
							<ellipse fill="#FF9900" cx="-167.7" cy="-27" rx="2.4" ry="5.2"/>
							<ellipse fill="#FF9900" cx="-161" cy="-27" rx="2.4" ry="5.2"/>
							<ellipse fill="#FFAA2B" cx="-164.4" cy="-27" rx="2.8" ry="6.4"/>
						</g>
					</g>
					<g>
						<g>
							<path fill="#00B1CC" d="M-196-90.5c0,0,6.3,32.3-11,57.3c0,0-23.4-41.2-1.5-64L-196-90.5z"/>
							<path fill="#6E00EB" d="M-196-90.5l-7.5-4c-0.5,7.6-2.8,24.2-12.1,39.1c3.2,12.5,8.7,22.2,8.7,22.2
								C-189.7-58.2-196-90.5-196-90.5z"/>
							<path fill="#FFBF00" d="M-196-90.5l-4.9-2.6c0.9,5.5,4,31.6-9.3,53.4c1.8,4.1,3.2,6.6,3.2,6.6C-189.7-58.2-196-90.5-196-90.5
								z"/>
							<g>
								<circle fill="#FF0051" cx="-197.6" cy="-86.7" r="1"/>
								<circle fill="#FF0051" cx="-197.4" cy="-76.2" r="1"/>
								<circle fill="#FF0051" cx="-198.2" cy="-64.7" r="1"/>
								<circle fill="#FF0051" cx="-200.5" cy="-54.7" r="1"/>
								<circle fill="#FF0051" cx="-203.8" cy="-44.2" r="1"/>
								<polygon fill="#6E00EB" points="-197.6,-84 -199.2,-81.4 -197.6,-78.9 -196.1,-81.4 								"/>
								<polygon fill="#6E00EB" points="-197.5,-72.5 -199.2,-70.1 -197.8,-67.5 -196.1,-69.9 								"/>
								<polygon fill="#6E00EB" points="-198.7,-62.1 -200.7,-59.9 -199.7,-57.2 -197.7,-59.3 								"/>
								<polygon fill="#6E00EB" points="-201.5,-51.7 -203.6,-49.7 -202.8,-46.8 -200.7,-48.8 								"/>
								<polygon fill="#6E00EB" points="-205.1,-42 -207.4,-40.2 -206.8,-37.3 -204.5,-39.1 								"/>
							</g>
						</g>
						<g>
							<path fill="#00B1CC" d="M-156.3-90.5c0,0-6.3,32.3,11,57.3c0,0,23.4-41.2,1.5-64L-156.3-90.5z"/>
							<path fill="#6E00EB" d="M-156.3-90.5l7.5-4c0.5,7.6,2.8,24.2,12.1,39.1c-3.2,12.5-8.7,22.2-8.7,22.2
								C-162.6-58.2-156.3-90.5-156.3-90.5z"/>
							<path fill="#FFBF00" d="M-156.3-90.5l4.9-2.6c-0.9,5.5-4,31.6,9.3,53.4c-1.8,4.1-3.2,6.6-3.2,6.6
								C-162.6-58.2-156.3-90.5-156.3-90.5z"/>
							<g>
								<circle fill="#FF0051" cx="-154.7" cy="-86.7" r="1"/>
								<circle fill="#FF0051" cx="-154.9" cy="-76.2" r="1"/>
								<circle fill="#FF0051" cx="-154.1" cy="-64.7" r="1"/>
								<circle fill="#FF0051" cx="-151.9" cy="-54.7" r="1"/>
								<circle fill="#FF0051" cx="-148.5" cy="-44.2" r="1"/>
								<polygon fill="#6E00EB" points="-154.7,-84 -153.1,-81.4 -154.7,-78.9 -156.2,-81.4 								"/>
								<polygon fill="#6E00EB" points="-154.8,-72.5 -153.1,-70.1 -154.5,-67.5 -156.2,-69.9 								"/>
								<polygon fill="#6E00EB" points="-153.6,-62.1 -151.6,-59.9 -152.6,-57.2 -154.6,-59.3 								"/>
								<polygon fill="#6E00EB" points="-150.9,-51.7 -148.7,-49.7 -149.5,-46.8 -151.6,-48.8 								"/>
								<polygon fill="#6E00EB" points="-147.2,-42 -144.9,-40.2 -145.5,-37.3 -147.8,-39.1 								"/>
							</g>
						</g>
					</g>
					<g>
						<path fill="#00B1CC" d="M-137.4-141.5c0,0-11.2,21.4-37.2,21.4v-14.2C-174.7-134.3-152.9-146.2-137.4-141.5z"/>
						<path fill="#00B1CC" d="M-214.9-141.5c0,0,11.2,21.4,37.2,21.4v-14.2C-177.7-134.3-199.4-146.2-214.9-141.5z"/>
					</g>
					<path fill="#FF0051" d="M-133.7-114.4c0,15.9-19,28.2-42.5,28.2s-42.5-12.4-42.5-28.2s19-28.7,42.5-28.7
						S-133.7-130.3-133.7-114.4z"/>
					<g>
						<g>
							<g>
								<circle fill="#FFEDD6" cx="-194.7" cy="-114.5" r="18.8"/>
							</g>
							<g>
								<g>
									<circle fill="#00B1CC" cx="-194.7" cy="-114.5" r="11.8"/>
								</g>
								<g>
									<circle fill="#010021" cx="-194.7" cy="-114.5" r="7.5"/>
								</g>
								<circle fill="#FFFFFF" cx="-199.6" cy="-119.3" r="2.7"/>
							</g>
						</g>
						<g>
							<g>
								<circle fill="#FFEDD6" cx="-157.6" cy="-114.5" r="18.8"/>
							</g>
							<g>
								<g>
									<circle fill="#00B1CC" cx="-157.6" cy="-114.5" r="11.8"/>
								</g>
								<g>
									<circle fill="#010021" cx="-157.6" cy="-114.5" r="7.5"/>
								</g>
								<circle fill="#FFFFFF" cx="-162.5" cy="-119.3" r="2.7"/>
							</g>
						</g>
					</g>
					<g>
						<g>
							<path fill="#00B1CC" d="M-176.2-137l16.7-1.1c0.5-5.6,6.8-12.7,6.8-12.7C-166.5-146.9-176.2-137-176.2-137z"/>
							<path fill="#00B1CC" d="M-199.6-150.8c0,0,6.3,7.1,6.8,12.7l16.7,1.1C-176.2-137-185.8-146.9-199.6-150.8z"/>
						</g>
						<path fill="#FFBF00" d="M-176.2-137c-13.6-5-29.9-9.5-39-4.5c0,0,29.9,2.9,39,34.3c9.1-31.4,39-34.3,39-34.3
							C-146.3-146.5-162.6-142-176.2-137z"/>
					</g>
					<g>
						<path fill="#00B1CC" d="M-176.2-124.9c-7.5-12.2-27.3-15.7-27.3-15.7c22,5.3,27.3,24.8,27.3,24.8s5.3-19.5,27.3-24.8
							C-148.8-140.5-168.7-137.1-176.2-124.9z"/>
						<path fill="#FF0051" d="M-176.2-133.1c-2.7-2.9-9.5-3.7-9.5-3.7c6.4,1.6,9.5,7.8,9.5,7.8s3.2-6.1,9.5-7.8
							C-166.6-136.8-173.4-136-176.2-133.1z"/>
					</g>
					<g>
						<path fill="#6E00EB" d="M-176.2-109.5c-1.7,0-3.2,0.1-6.2,2c0,0,2.8,5.3,6.2,7.8c3.4-2.4,6.2-7.8,6.2-7.8
							C-172.9-109.4-174.4-109.5-176.2-109.5z"/>
					</g>
				</g>
			</g>
			<circle display="inline" fill="#6E00EB" cx="-176.2" cy="-128.4" r="3.8"/>
			<circle display="inline" fill="#FFBF00" cx="-176.2" cy="-128.4" r="2.5"/>
			
				<rect x="-177.3" y="-129.6" transform="matrix(0.7071 -0.7071 0.7071 0.7071 39.2023 -162.161)" display="inline" fill="#FF0051" width="2.4" height="2.4"/>
			<g display="inline">
				<g>
					<polygon fill="#6E00EB" points="-191.1,-139.1 -189.1,-136.9 -186.2,-137.6 -188.2,-139.8 					"/>
					<polygon fill="#FF0051" points="-195.6,-140.2 -194.2,-138.7 -192.2,-139.2 -193.6,-140.8 					"/>
				</g>
				<g>
					<polygon fill="#6E00EB" points="-161.2,-139.1 -163.2,-136.9 -166.1,-137.6 -164.1,-139.8 					"/>
					<polygon fill="#FF0051" points="-156.7,-140.2 -158.1,-138.7 -160.1,-139.2 -158.7,-140.8 					"/>
				</g>
			</g>
			<path display="inline" opacity="0.16" fill="#170000" d="M-133.7-114.4c0-7.1-3.8-13.5-10-18.5c4.5-4.6,6.6-8.6,6.6-8.6
				c-5.3-2.9-13-2.6-21.1-0.9c2-4.4,5.5-8.4,5.5-8.4c-6.7,1.9-12.1,5.2-16.2,8.1c-2.3-0.3-4.7-0.4-6.7-0.4v119.3c2,0,4-0.3,6-1
				c0.4,1.8,1.1,3,2.1,3c0.5,0,0.9-0.3,1.3-0.9c0.5,1.3,1.2,2.1,2,2.1c0.8,0,1.5-0.8,2-2.1c0.4,0.6,0.8,0.9,1.3,0.9
				c1.3,0,2.4-2.3,2.4-5.2c0-1.7-0.4-3.2-1-4.2c2-1.9,4-4.1,5.7-6.6l2.4,2.4l2.9-2.9c1,1.7,2,3.5,3.2,5.1c0,0,0,0,0-0.1c0,0,0,0,0,0
				c0,0,0,0,0-0.1c0,0,0,0,0-0.1c0,0,0-0.1,0.1-0.1c0,0,0-0.1,0.1-0.1c0,0,0-0.1,0.1-0.1c0,0,0-0.1,0.1-0.1c0-0.1,0.1-0.1,0.1-0.2
				c0,0,0-0.1,0.1-0.1c0-0.1,0.1-0.1,0.1-0.2c0-0.1,0.1-0.1,0.1-0.2c0-0.1,0.1-0.1,0.1-0.2c0-0.1,0.1-0.1,0.1-0.2
				c0-0.1,0.1-0.2,0.1-0.2c0-0.1,0.1-0.1,0.1-0.2c0-0.1,0.1-0.2,0.1-0.3c0-0.1,0.1-0.2,0.1-0.2c0-0.1,0.1-0.2,0.1-0.3
				c0-0.1,0.1-0.2,0.1-0.2c0.1-0.1,0.1-0.2,0.2-0.3c0-0.1,0.1-0.2,0.1-0.3c0.1-0.1,0.1-0.2,0.2-0.3c0-0.1,0.1-0.2,0.1-0.3
				c0.1-0.1,0.1-0.2,0.2-0.4c0-0.1,0.1-0.2,0.1-0.3c0.1-0.1,0.1-0.3,0.2-0.4c0-0.1,0.1-0.2,0.1-0.3c0.1-0.1,0.1-0.3,0.2-0.4
				c0-0.1,0.1-0.2,0.2-0.3c0.1-0.1,0.1-0.3,0.2-0.4c0.1-0.1,0.1-0.2,0.2-0.4c0.1-0.1,0.1-0.3,0.2-0.4c0.1-0.1,0.1-0.2,0.2-0.4
				c0.1-0.2,0.1-0.3,0.2-0.5c0.1-0.1,0.1-0.2,0.2-0.4c0.1-0.2,0.1-0.3,0.2-0.5c0.1-0.1,0.1-0.3,0.2-0.4c0.1-0.2,0.1-0.3,0.2-0.5
				c0.1-0.1,0.1-0.3,0.2-0.4c0.1-0.2,0.1-0.4,0.2-0.5c0.1-0.1,0.1-0.3,0.2-0.4c0.1-0.2,0.1-0.4,0.2-0.5c0.1-0.1,0.1-0.3,0.2-0.4
				c0.1-0.2,0.1-0.4,0.2-0.6c0.1-0.1,0.1-0.3,0.2-0.4c0.1-0.2,0.1-0.4,0.2-0.6c0.1-0.1,0.1-0.3,0.2-0.4c0.1-0.2,0.1-0.4,0.2-0.6
				c0.1-0.1,0.1-0.3,0.2-0.5c0.1-0.2,0.1-0.4,0.2-0.6c0-0.2,0.1-0.3,0.1-0.5c0.1-0.2,0.1-0.4,0.2-0.6c0-0.1,0.1-0.3,0.1-0.4
				c0.1-0.2,0.1-0.5,0.2-0.7c0-0.1,0.1-0.3,0.1-0.4c0.1-0.3,0.1-0.5,0.2-0.8c0-0.1,0-0.1,0-0.2c3.8-13.4,5.3-30.9-6-43.3
				C-137.3-101.3-133.7-107.6-133.7-114.4z"/>
		</g>
		<g display="none">
			<path display="inline" fill="#6E00EB" d="M-32.6,77.2c0,24.4-15.1,50.6-33.6,50.6c-18.6,0-33.6-26.2-33.6-50.6
				c0-24.4,15.1-37.7,33.6-37.7C-47.7,39.5-32.6,52.8-32.6,77.2z"/>
			<g display="inline">
				<g>
					<g>
						<polygon fill="#B752FF" points="-58.9,74.5 -73.6,74.5 -66.3,85 						"/>
						<polygon fill="#00B1CC" points="-61.8,80.5 -70.8,80.5 -66.3,86.9 						"/>
						<polygon fill="#FFBF00" points="-58.9,84.5 -73.6,84.5 -66.3,95 						"/>
						<polygon fill="#FF0051" points="-61.8,90.5 -70.8,90.5 -66.3,96.9 						"/>
					</g>
					<g>
						<polygon fill="#B752FF" points="-58.9,92.5 -73.6,92.5 -66.3,103 						"/>
						<polygon fill="#00B1CC" points="-61.8,98.5 -70.8,98.5 -66.3,104.9 						"/>
						<polygon fill="#FFBF00" points="-58.9,102.5 -73.6,102.5 -66.3,113 						"/>
						<polygon fill="#FF0051" points="-61.8,108.5 -70.8,108.5 -66.3,114.9 						"/>
					</g>
				</g>
				<g>
					<g>
						<g>
							<polygon fill="#B752FF" points="-59.9,108.5 -45.2,108.5 -52.6,98 							"/>
							<polygon fill="#00B1CC" points="-57.1,102.5 -48.1,102.5 -52.6,96.1 							"/>
							<polygon fill="#FF0051" points="-59.9,98.5 -45.2,98.5 -52.6,88 							"/>
							<polygon fill="#FFBF00" points="-57.1,92.5 -48.1,92.5 -52.6,86.1 							"/>
						</g>
						<g>
							<polygon fill="#B752FF" points="-59.9,90.5 -45.2,90.5 -52.6,80 							"/>
							<polygon fill="#00B1CC" points="-57.1,84.5 -48.1,84.5 -52.6,78.1 							"/>
							<polygon fill="#FF0051" points="-59.9,80.5 -45.2,80.5 -52.6,70 							"/>
							<polygon fill="#FFBF00" points="-57.1,74.5 -48.1,74.5 -52.6,68.1 							"/>
						</g>
					</g>
					<g>
						<g>
							<polygon fill="#B752FF" points="-87.3,108.5 -72.6,108.5 -80,98 							"/>
							<polygon fill="#00B1CC" points="-84.5,102.5 -75.4,102.5 -80,96.1 							"/>
							<polygon fill="#FF0051" points="-87.3,98.5 -72.6,98.5 -80,88 							"/>
							<polygon fill="#FFBF00" points="-84.5,92.5 -75.4,92.5 -80,86.1 							"/>
						</g>
						<g>
							<polygon fill="#B752FF" points="-87.3,90.5 -72.6,90.5 -80,80 							"/>
							<polygon fill="#00B1CC" points="-84.5,84.5 -75.4,84.5 -80,78.1 							"/>
							<polygon fill="#FF0051" points="-87.3,80.5 -72.6,80.5 -80,70 							"/>
							<polygon fill="#FFBF00" points="-84.5,74.5 -75.4,74.5 -80,68.1 							"/>
						</g>
					</g>
				</g>
			</g>
			<g display="inline">
				<g>
					<path fill="#00B1CC" d="M-86.1,61.1c0,0,6.3,32.3-11,57.3c0,0-23.4-41.2-1.5-64L-86.1,61.1z"/>
					<path fill="#6E00EB" d="M-86.1,61.1l-4.8-2.6c-2,6.7-6.7,19.7-16.2,31.3c2.6,15.5,10,28.6,10,28.6
						C-79.8,93.4-86.1,61.1-86.1,61.1z"/>
					<path fill="#FFBF00" d="M-86.1,61.1l-2.1-1.1c0.6,10.3-0.5,29.7-14.4,46.1c2.8,7.4,5.6,12.3,5.6,12.3
						C-79.8,93.4-86.1,61.1-86.1,61.1z"/>
					<g>
						
							<ellipse transform="matrix(0.9993 -3.849504e-02 3.849504e-02 0.9993 -3.677 -3.8464)" fill="#FF0051" cx="-101.7" cy="93.6" rx="2.7" ry="2.7"/>
						
							<ellipse transform="matrix(0.9993 -3.850761e-02 3.850761e-02 0.9993 -3.208 -3.6262)" fill="#FF0051" cx="-95.7" cy="81.5" rx="1.6" ry="1.6"/>
						
							<ellipse transform="matrix(0.9993 -3.851798e-02 3.851798e-02 0.9993 -2.8361 -3.4878)" fill="#FF0051" cx="-91.9" cy="71.9" rx="1.3" ry="1.3"/>
						<polygon fill="#FFBF00" points="-96.8,83.7 -100.6,85.8 -100,90.1 -96.2,88 						"/>
						<polygon fill="#FFBF00" points="-92.7,74 -95.4,75.9 -94.6,79.2 -91.9,77.3 						"/>
						<polygon fill="#FFBF00" points="-90.3,65.9 -92.2,67.6 -91.3,69.9 -89.4,68.2 						"/>
					</g>
				</g>
				<g>
					<path fill="#00B1CC" d="M-46.4,61.1c0,0-6.3,32.3,11,57.3c0,0,23.4-41.2,1.5-64L-46.4,61.1z"/>
					<path fill="#6E00EB" d="M-46.4,61.1l4.8-2.6c2,6.7,6.7,19.7,16.2,31.3c-2.6,15.5-10,28.6-10,28.6
						C-52.7,93.4-46.4,61.1-46.4,61.1z"/>
					<path fill="#FFBF00" d="M-46.4,61.1l2.1-1.1c-0.6,10.3,0.5,29.7,14.4,46.1c-2.8,7.4-5.6,12.3-5.6,12.3
						C-52.7,93.4-46.4,61.1-46.4,61.1z"/>
					<g>
						
							<ellipse transform="matrix(3.849504e-02 -0.9993 0.9993 3.849504e-02 -123.1141 59.1737)" fill="#FF0051" cx="-30.8" cy="93.6" rx="2.7" ry="2.7"/>
						
							<ellipse transform="matrix(3.850852e-02 -0.9993 0.9993 3.850852e-02 -116.7794 41.5641)" fill="#FF0051" cx="-36.8" cy="81.5" rx="1.6" ry="1.6"/>
						
							<ellipse transform="matrix(3.851913e-02 -0.9993 0.9993 3.851913e-02 -110.8347 28.5268)" fill="#FF0051" cx="-40.6" cy="71.9" rx="1.3" ry="1.3"/>
						<polygon fill="#FFBF00" points="-35.7,83.7 -32,85.8 -32.5,90.1 -36.3,88 						"/>
						<polygon fill="#FFBF00" points="-39.9,74 -37.1,75.9 -37.9,79.2 -40.7,77.3 						"/>
						<polygon fill="#FFBF00" points="-42.2,65.9 -40.3,67.6 -41.3,69.9 -43.1,68.2 						"/>
					</g>
				</g>
			</g>
			<g display="inline">
				<path fill="#FFBF00" d="M-23.6,7.9c0,0-12.1,22.8-41.1,22.8V15.6C-64.7,15.6-40.6,2.8-23.6,7.9z"/>
				<path fill="#FFBF00" d="M-109.8,7.9c0,0,13.1,22.8,41.1,22.8V15.6C-68.7,15.6-92.7,2.8-109.8,7.9z"/>
			</g>
			<path display="inline" fill="#FF0051" d="M-23.8,37.2c0,15.9-19,28.2-42.5,28.2s-42.5-12.4-42.5-28.2s19-28.7,42.5-28.7
				S-23.8,21.3-23.8,37.2z"/>
			<g display="inline">
				<g>
					<g>
						<circle fill="#FFEDD6" cx="-84.8" cy="37.2" r="18.8"/>
					</g>
					<g>
						<g>
							<circle fill="#00B1CC" cx="-84.8" cy="37.2" r="11.8"/>
						</g>
						<g>
							<circle fill="#010021" cx="-84.8" cy="37.2" r="7.5"/>
						</g>
						<circle fill="#FFFFFF" cx="-89.7" cy="32.3" r="2.7"/>
					</g>
				</g>
				<g>
					<g>
						<circle fill="#FFEDD6" cx="-47.7" cy="37.2" r="18.8"/>
					</g>
					<g>
						<g>
							<circle fill="#00B1CC" cx="-47.7" cy="37.2" r="11.8"/>
						</g>
						<g>
							<circle fill="#010021" cx="-47.7" cy="37.2" r="7.5"/>
						</g>
						<circle fill="#FFFFFF" cx="-52.6" cy="32.3" r="2.7"/>
					</g>
				</g>
			</g>
			<path display="inline" fill="#00B1CC" d="M-66.3,13.8c-15-5.3-33-11.2-43.1-5.9c0,0,33,3.1,43.1,36.6C-56.2,11-23.2,7.9-23.2,7.9
				C-33.3,2.5-51.3,8.4-66.3,13.8z"/>
			<path display="inline" fill="#6E00EB" d="M-66.3,42.1c-1.7,0-3.2,0.1-6.2,2c0,0,2.8,5.3,6.2,7.8c3.4-2.4,6.2-7.8,6.2-7.8
				C-63,42.2-64.5,42.1-66.3,42.1z"/>
			<g display="inline">
				<g>
					<ellipse fill="#FF9900" cx="-81.4" cy="124.6" rx="2.4" ry="5.2"/>
					<ellipse fill="#FF9900" cx="-74.7" cy="124.6" rx="2.4" ry="5.2"/>
					<ellipse fill="#FFAA2B" cx="-78.1" cy="124.6" rx="2.8" ry="6.4"/>
				</g>
				<g>
					<ellipse fill="#FF9900" cx="-57.9" cy="124.6" rx="2.4" ry="5.2"/>
					<ellipse fill="#FF9900" cx="-51.1" cy="124.6" rx="2.4" ry="5.2"/>
					<ellipse fill="#FFAA2B" cx="-54.5" cy="124.6" rx="2.8" ry="6.4"/>
				</g>
			</g>
			<path display="inline" fill="#FFBF00" d="M-56.2,25.7l-10-10l-10,10c1,1.2,2,2.5,2.9,3.8l7.1-7.1l7.1,7.1
				C-58.2,28.2-57.3,26.9-56.2,25.7z"/>
			<path display="inline" fill="#FF0051" d="M-58.2,28.2l-8-8l-8,8c0.9,1.3,1.9,2.6,2.7,4.1l5.3-5.3l5.3,5.3
				C-60.1,30.8-59.2,29.5-58.2,28.2z"/>
			<circle display="inline" fill="#FFBF00" cx="-66.3" cy="31.9" r="1.5"/>
			<circle display="inline" fill="#FFEDD6" cx="-66.3" cy="36.2" r="1.1"/>
			<g display="inline">
				<g>
					<polygon fill="#6E00EB" points="-57.5,14.9 -59.8,18.8 -54.8,18.1 -52.5,14.2 					"/>
					<polygon fill="#6E00EB" points="-75,14.9 -72.7,18.8 -77.7,18.1 -80.1,14.2 					"/>
				</g>
				<g>
					<g>
						<polygon fill="#FFBF00" points="-49.6,12.6 -50.9,14.8 -48.1,14.4 -46.8,12.2 						"/>
						<polygon fill="#FF0051" points="-44.2,10.6 -45.3,12.6 -42.8,12.2 -41.6,10.3 						"/>
					</g>
					<g>
						<polygon fill="#FFBF00" points="-82.9,12.6 -81.6,14.8 -84.4,14.4 -85.7,12.2 						"/>
						<polygon fill="#FF0051" points="-88.4,10.6 -87.2,12.6 -89.7,12.2 -90.9,10.3 						"/>
					</g>
				</g>
			</g>
			<path display="inline" opacity="0.16" fill="#170000" d="M-23.8,37.2c0-6.7-3.4-12.9-9.2-17.8c6.7-5.7,9.8-11.5,9.8-11.5
				c-7.5-3.9-19.5-1.7-31.2,1.8c-3.8-0.8-7.3-1.2-12.3-1.2v119.3c3,0,4.4-0.3,6.4-1c0.4,1.8,1.3,3,2.3,3c0.5,0,1-0.3,1.4-0.9
				c0.5,1.3,1.3,2.1,2.1,2.1c0.8,0,1.6-0.8,2.1-2.1c0.4,0.6,0.8,0.9,1.3,0.9c1.3,0,2.4-2.3,2.4-5.2c0-1.7-0.4-3.2-1-4.2
				c3.3-3.1,6.3-7.1,8.8-11.6c0.2,0.4,0.4,0.8,0.5,1.2c0.2,0.4,0.4,0.8,0.6,1.2c1.2,2.4,2.6,4.8,4.3,7.2c0,0,0,0,0,0c0,0,0,0,0,0
				c0,0,0,0,0,0c0,0,0,0,0,0c0,0,0,0,0-0.1c0,0,0,0,0,0c0,0,0,0,0-0.1c0,0,0,0,0-0.1c0,0,0,0,0,0c0,0,0,0,0-0.1c0,0,0-0.1,0.1-0.1
				c0,0,0,0,0-0.1c0,0,0,0,0-0.1c0,0,0,0,0-0.1c0,0,0-0.1,0.1-0.1c0,0,0,0,0-0.1c0,0,0,0,0-0.1c0,0,0.1-0.1,0.1-0.1
				c0,0,0-0.1,0.1-0.1c0,0,0,0,0,0c0,0,0-0.1,0.1-0.1c0-0.1,0.1-0.1,0.1-0.2c0,0,0-0.1,0.1-0.1c0,0,0,0,0,0c0,0,0,0,0-0.1
				c0,0,0-0.1,0.1-0.1c0,0,0-0.1,0.1-0.1c0.1-0.2,0.2-0.3,0.2-0.5c0,0,0-0.1,0.1-0.1c0-0.1,0.1-0.1,0.1-0.2c0,0,0,0,0-0.1
				c0,0,0,0,0,0c0,0,0-0.1,0.1-0.1c0.1-0.1,0.1-0.2,0.2-0.4c0-0.1,0.1-0.1,0.1-0.2c0,0,0-0.1,0.1-0.1c0,0,0-0.1,0-0.1
				c0-0.1,0.1-0.2,0.2-0.3c0-0.1,0.1-0.1,0.1-0.2c0,0,0,0,0,0c0.1-0.2,0.2-0.3,0.2-0.5c0-0.1,0.1-0.1,0.1-0.2
				c0.1-0.2,0.2-0.3,0.2-0.5c0,0,0-0.1,0.1-0.1c0,0,0-0.1,0.1-0.1c0.1-0.1,0.1-0.2,0.2-0.3c0,0,0,0,0,0c0-0.1,0.1-0.2,0.1-0.3
				c0-0.1,0-0.1,0.1-0.2c0.1-0.2,0.1-0.3,0.2-0.5c0-0.1,0.1-0.1,0.1-0.2c0-0.1,0-0.1,0.1-0.2c0,0,0,0,0,0c0-0.1,0.1-0.2,0.1-0.3
				c0-0.1,0.1-0.1,0.1-0.2c0.1-0.3,0.2-0.5,0.3-0.8c0-0.1,0.1-0.2,0.1-0.3c0-0.1,0.1-0.2,0.1-0.3c0,0,0-0.1,0-0.1
				c0-0.1,0.1-0.2,0.1-0.3c0.1-0.2,0.2-0.4,0.2-0.6c0-0.1,0.1-0.1,0.1-0.2c0-0.1,0.1-0.2,0.1-0.3c0.1-0.2,0.1-0.3,0.2-0.5
				c0,0,0,0,0,0c0,0,0-0.1,0.1-0.1c0-0.1,0.1-0.1,0.1-0.2c0.1-0.2,0.2-0.5,0.3-0.7c0-0.1,0.1-0.2,0.1-0.3c0.1-0.3,0.2-0.6,0.3-0.8
				c0-0.1,0.1-0.2,0.1-0.3c0.1-0.3,0.2-0.6,0.3-0.9c0-0.1,0-0.1,0.1-0.2c0.4-1.2,0.8-2.4,1.2-3.7c0-0.1,0-0.1,0.1-0.2
				c0.1-0.3,0.2-0.7,0.3-1.1c0-0.1,0.1-0.2,0.1-0.3c0.1-0.3,0.2-0.6,0.3-1c0-0.1,0.1-0.2,0.1-0.4c0.1-0.3,0.2-0.6,0.2-0.9
				c0-0.1,0.1-0.3,0.1-0.4c0.1-0.3,0.2-0.6,0.2-1c0-0.1,0.1-0.2,0.1-0.4c0.1-0.4,0.2-0.7,0.2-1.1c0-0.1,0-0.2,0.1-0.3
				c0.1-0.4,0.2-0.9,0.3-1.3c0,0,0,0,0,0c0.1-0.5,0.2-1,0.3-1.4l0,0c1.9-11.7,1.1-24.9-7.9-34.7C-27.4,50.3-23.8,44.1-23.8,37.2z"/>
		</g>
	</g>
	<text transform="matrix(1 0 0 1 -5.3964 31.1667)" display="none"><tspan x="0" y="0" display="inline" fill="#2D174C" font-family="'Rondalo'" font-size="19px">NO COVER</tspan><tspan x="87.2" y="0" display="inline" fill="#2D174C" font-family="'Rondalo'" font-size="17px">,</tspan><tspan x="1" y="13" display="inline" fill="#2D174C" font-family="'Rondalo'" font-size="17px">but we have</tspan><tspan x="13.4" y="26" display="inline" fill="#2D174C" font-family="'Rondalo'" font-size="17px">found an</tspan><tspan x="19.9" y="48" display="inline" fill="#2D174C" font-family="'November'" font-size="24px">OWL</tspan></text>
</g>
<g id="Designed_by_Freepik" display="none">
	<g display="inline">
		<g>
			<path fill="#FFBF00" d="M229.2,543.4c-0.1-0.2-0.3-0.3-0.6-0.3c-0.3,0-0.7,0.1-0.8,0.3c-0.1,0.2-0.4,0.5-0.4,0.8v2.6
				c0-0.4-0.5-0.6-0.8-0.8c-0.4-0.2-0.7-0.3-1.2-0.3c-0.9,0-1.5,0.3-2.1,0.9c-0.5,0.6-0.8,1.5-0.8,2.6c0,0.5,0.1,1,0.2,1.4
				c0.1,0.5,0.3,0.8,0.6,1.2c0.3,0.3,0.6,0.6,0.9,0.8c0.4,0.2,0.7,0.3,1.2,0.3c0.3,0,0.6,0,0.9-0.1c0.3-0.1,0.3-0.2,0.5-0.4
				c0.2-0.2,0.5-0.4,0.5-0.7v0.2c0,0.3,0.3,0.6,0.4,0.8c0.2,0.2,0.5,0.3,0.7,0.3c0.2,0,0.4-0.1,0.6-0.3c0.1-0.2,0.2-0.4,0.2-0.8
				v-7.8C229.3,543.9,229.3,543.6,229.2,543.4z M227.4,550.6c-0.1,0.3-0.4,0.6-0.6,0.7c-0.3,0.2-0.5,0.2-0.8,0.2
				c-0.3,0-0.6-0.1-0.9-0.3c-0.3-0.2-0.5-0.4-0.6-0.8c-0.1-0.3-0.2-0.7-0.2-1.2c0-0.5,0.1-0.8,0.2-1.2c0.1-0.3,0.3-0.6,0.6-0.8
				c0.3-0.2,0.5-0.3,0.9-0.3c0.3,0,0.6,0.1,0.9,0.3c0.3,0.2,0.5,0.4,0.6,0.8c0.2,0.3,0.2,0.7,0.2,1.2
				C227.7,549.9,227.6,550.3,227.4,550.6z"/>
			<path fill="#FFBF00" d="M236.3,550.5c-0.2,0-0.3,0-0.4,0.1c-0.2,0.2-0.4,0.4-0.5,0.5c-0.1,0.1-0.3,0.2-0.5,0.3
				c-0.2,0.1-0.3,0.2-0.5,0.2c-0.2,0.1-0.4,0.1-0.6,0.1c-0.3,0-0.6-0.1-0.9-0.2c-0.3-0.2-0.5-0.5-0.6-0.8c-0.2-0.3-0.2-0.2-0.2-1.2
				h3.4c0.5,0,0.8,0.1,1.1,0c0.3-0.1,0.4-0.3,0.4-0.8c0-0.5-0.1-0.9-0.4-1.4c-0.2-0.5-0.6-0.8-1.1-1.1c-0.5-0.3-1.1-0.4-1.8-0.4
				c-0.5,0-1,0.1-1.4,0.3c-0.4,0.2-0.8,0.4-1.1,0.7c-0.3,0.3-0.5,0.7-0.7,1.2c-0.2,0.4-0.2,0.9-0.2,1.4c0,1.1,0.3,2,0.9,2.6
				c0.6,0.6,1.5,1,2.6,1c0.5,0,0.9-0.1,1.3-0.2c0.4-0.1,0.7-0.3,0.9-0.5c0.3-0.2,0.4-0.4,0.6-0.6c0.1-0.2,0.2-0.4,0.2-0.6
				c0-0.2,0-0.3-0.2-0.4C236.6,550.6,236.4,550.5,236.3,550.5z M232.6,547.3c0.3-0.3,0.6-0.4,1.1-0.4c0.5,0,0.8,0,1.1,0.3
				c0.3,0.3,0.4,1.2,0.5,1.2h-3.2C232.1,548.5,232.3,547.6,232.6,547.3z"/>
			<path fill="#FFBF00" d="M243.3,549.8c-0.2-0.3-0.4-0.5-0.8-0.6c-0.3-0.2-0.8-0.4-1.3-0.5c-0.5-0.1-0.8-0.2-1.1-0.3
				c-0.3-0.1-0.5-0.2-0.6-0.3c-0.1-0.1-0.2-0.3-0.2-0.5c0-0.2,0.1-0.4,0.3-0.5c0.2-0.1,0.5-0.2,0.8-0.2c0.3,0,0.5,0.1,0.7,0.2
				c0.2,0.1,0.3,0.2,0.5,0.4c0.2,0.2,0.3,0.4,0.4,0.5c0.1,0.1,0.3,0.2,0.5,0.2c0.3,0,0.4-0.1,0.6-0.2c0.1-0.1,0.2-0.3,0.2-0.5
				c0-0.2-0.1-0.4-0.2-0.6c-0.1-0.2-0.3-0.4-0.5-0.5c-0.2-0.2-0.5-0.3-0.9-0.4c-0.4-0.1-0.8-0.1-1.2-0.1c-0.6,0-1.1,0.1-1.5,0.3
				c-0.4,0.2-0.7,0.4-0.9,0.8c-0.2,0.3-0.3,0.7-0.3,1c0,0.4,0.1,0.7,0.3,1c0.2,0.3,0.5,0.5,0.9,0.7c0.4,0.2,0.9,0.3,1.5,0.5
				c0.5,0.1,0.9,0.3,1.1,0.4c0.2,0.1,0.4,0.4,0.4,0.7c0,0.2-0.1,0.4-0.3,0.5c-0.2,0.2-0.5,0.2-0.9,0.2c-0.4,0-0.8-0.1-1-0.2
				c-0.3-0.2-0.5-0.4-0.7-0.7c-0.1-0.2-0.2-0.3-0.3-0.4s-0.2-0.1-0.4-0.1c-0.2,0-0.4,0.1-0.5,0.2c-0.1,0.1-0.2,0.3-0.2,0.5
				c0,0.3,0.1,0.6,0.3,0.9c0.2,0.3,0.6,0.5,1,0.7c0.5,0.2,1,0.3,1.6,0.3c0.7,0,1.2-0.1,1.7-0.3c0.5-0.2,0.8-0.4,1-0.8
				c0.2-0.3,0.4-0.8,0.4-1.2C243.5,550.3,243.4,550,243.3,549.8z"/>
			<path fill="#FFBF00" d="M246,546.1c-0.2-0.2-0.4-0.3-0.7-0.3c-0.3,0-0.5,0.1-0.7,0.3c-0.2,0.2-0.3,0.4-0.3,0.8v5
				c0,0.3,0.1,0.6,0.3,0.8c0.2,0.2,0.4,0.3,0.7,0.3c0.3,0,0.6-0.1,0.7-0.3c0.2-0.2,0.3-0.5,0.3-0.8v-5.1
				C246.3,546.5,246.2,546.2,246,546.1z M245.9,543.5c-0.2-0.1-0.4-0.2-0.6-0.2c-0.2,0-0.4,0.1-0.6,0.3c-0.2,0.2-0.3,0.4-0.3,0.6
				c0,0.3,0.1,0.5,0.3,0.6c0.2,0.1,0.4,0.2,0.6,0.2c0.2,0,0.4-0.1,0.6-0.2c0.2-0.2,0.3-0.4,0.3-0.6
				C246.2,543.8,246.1,543.6,245.9,543.5z"/>
			<path fill="#FFBF00" d="M253.9,546.1c-0.1-0.2-0.5-0.3-0.8-0.3c-0.2,0-0.4,0.1-0.6,0.3c-0.1,0.2-0.2,0.4-0.2,0.7v0.2
				c0-0.4-0.7-0.7-1.1-0.9c-0.4-0.2-0.8-0.3-1.3-0.3c-0.4,0-0.8,0.1-1.2,0.2c-0.4,0.1-0.7,0.4-0.9,0.7c-0.3,0.3-0.5,0.7-0.6,1.1
				c-0.2,0.4-0.2,0.9-0.2,1.4c0,0.7,0.1,1.3,0.4,1.9c0.2,0.5,0.6,1,1,1.3c0.4,0.3,0.9,0.5,1.5,0.5c0.5,0,0.9-0.1,1.3-0.3
				c0.4-0.2,0.7-0.5,0.9-0.9c0,0.6,0,1,0,1.3c0,0.3-0.1,0.5-0.2,0.7c-0.1,0.2-0.3,0.4-0.5,0.5c-0.3,0.1-0.6,0.2-1.1,0.2
				c-0.2,0-0.4,0-0.6-0.1c-0.2,0-0.3-0.1-0.4-0.2c-0.1-0.1-0.2-0.2-0.3-0.3c-0.1-0.1-0.2-0.2-0.3-0.3c-0.2-0.2-0.4-0.3-0.7-0.3
				c-0.2,0-0.4,0.1-0.5,0.2c-0.1,0.1-0.2,0.3-0.2,0.5c0,0.3,0.1,0.5,0.4,0.8c0.3,0.3,0.6,0.5,1.1,0.7c0.5,0.2,1,0.3,1.6,0.3
				c0.7,0,1.2-0.1,1.6-0.2c0.4-0.1,0.8-0.3,1.1-0.6c0.3-0.3,0.7-0.6,0.8-1c0.1-0.4,0.4-0.9,0.4-1.5v-5.1
				C254.3,546.7,254,546.4,253.9,546.1z M251.9,550.5c-0.2,0.3-0.4,0.6-0.6,0.7c-0.3,0.2-0.5,0.2-0.8,0.2c-0.5,0-0.9-0.2-1.2-0.5
				c-0.3-0.4-0.5-0.9-0.5-1.6c0-0.7,0.1-1.3,0.5-1.6c0.3-0.4,0.7-0.6,1.2-0.6c0.5,0,0.9,0.2,1.2,0.6c0.3,0.4,0.5,1,0.5,1.7
				C252.2,549.8,252.1,550.2,251.9,550.5z"/>
			<path fill="#FFBF00" d="M261.3,547.7c0-0.2-0.1-0.5-0.2-0.7c-0.2-0.4-0.5-0.6-0.8-0.9c-0.4-0.2-0.8-0.3-1.2-0.3
				c-0.5,0-0.9,0.1-1.3,0.3c-0.1,0-0.4,0.1-0.5,0.2c-0.3,0.2,0.1,0.4-0.9,0.7v-0.2c0-0.2,0.1-0.4,0.1-0.5c-0.1-0.1-0.1-0.3-0.2-0.3
				c-0.1-0.1-0.2-0.1-0.4-0.1c-0.3,0-0.3,0.1-0.4,0.3c-0.2,0.2,0,0.4,0,0.8v5.1c0,0.3-0.1,0.6,0.1,0.8c0.2,0.2,0.3,0.3,0.5,0.3
				c0.3,0,0.2-0.1,0.4-0.3c0.2-0.2,0-0.5,0-0.8v-2.2c0-0.7,0.3-1.2,0.4-1.5c0.1-0.3,0.4-0.6,0.7-0.8c0.3-0.2,0.6-0.3,0.9-0.3
				c0.5,0,0.7,0.2,0.9,0.5c0.2,0.3,0.2,0.8,0.2,1.3v2.9c0,0.3,0.2,0.6,0.3,0.8c0.2,0.2,0.4,0.3,0.7,0.3c0.3,0,0.5-0.1,0.7-0.3
				c0.2-0.2,0.3-0.5,0.3-0.8v-3.3C261.3,548.2,261.3,547.9,261.3,547.7z"/>
			<path fill="#FFBF00" d="M268.1,550.5c-0.2,0-0.3,0-0.4,0.1c-0.2,0.2-0.4,0.4-0.5,0.5c-0.1,0.1-0.3,0.2-0.5,0.3
				c-0.2,0.1-0.3,0-0.5,0.1c-0.2,0.1-0.4-0.1-0.5-0.1h0c0,0,0,0,0,0c-0.3,0-0.6,0.1-0.9-0.1c-0.3-0.2-0.3-0.3-0.5-0.6
				c0-0.1,0,0,0-0.1v0c0-0.3-0.4-0.2-0.4-1.2h3.4c0.5,0,0.8,0.1,1.1,0s0.4-0.3,0.4-0.8c0-0.5-0.1-0.9-0.4-1.4
				c-0.2-0.5-0.6-0.8-1.1-1.1c-0.5-0.3-1.1-0.4-1.8-0.4c-0.5,0-1,0.1-1.4,0.3c-0.4,0.2-0.8,0.4-1.1,0.7c-0.3,0.3-0.5,0.7-0.7,1.2
				c-0.2,0.4-0.2,0.9-0.2,1.4c0,1.1,0.3,2,0.9,2.6c0.6,0.6,1.5,1,2.6,1c0.5,0,0.9-0.1,1.3-0.2c0,0,0,0,0,0c0.4-0.1,0.7-0.3,0.9-0.5
				c0.3-0.2,0.4-0.4,0.6-0.6c0.1-0.2,0.2-0.4,0.2-0.6c0-0.2-0.1-0.3-0.2-0.4C268.4,550.6,268.3,550.5,268.1,550.5z M264.4,547.3
				c0.3-0.3,0.6-0.4,1.1-0.4c0.5,0,0.8,0,1.1,0.3c0.3,0.3,0.5,1.2,0.5,1.2h-3.2C264,548.5,264.2,547.6,264.4,547.3z"/>
			<path fill="#FFBF00" d="M276,543.4c-0.1-0.2-0.4-0.3-0.6-0.3c-0.3,0-0.6,0.1-0.7,0.3c-0.1,0.2-0.3,0.5-0.3,0.8v2.6
				c0-0.4-0.6-0.6-0.9-0.8c-0.4-0.2-0.7-0.3-1.2-0.3c-0.9,0-1.6,0.3-2.1,0.9c-0.5,0.6-0.8,1.5-0.8,2.6c0,0.5,0.1,1,0.2,1.4
				c0.1,0.5,0.3,0.8,0.6,1.2c0.3,0.3,0.6,0.6,0.9,0.8c0.4,0.2,0.8,0.3,1.2,0.3c0.3,0,0.6,0,0.9-0.1c0.3-0.1,0.4-0.2,0.7-0.4
				c0.2-0.2,0.6-0.4,0.6-0.7v0.2c0,0.3,0.2,0.6,0.3,0.8c0.2,0.2,0.4,0.3,0.6,0.3c0.2,0,0.5-0.1,0.7-0.3c0.2-0.2,0.3-0.4,0.3-0.8
				v-7.8C276.3,543.9,276.2,543.6,276,543.4z M274.2,550.6c-0.1,0.3-0.4,0.6-0.6,0.7c-0.3,0.2-0.5,0.2-0.8,0.2
				c-0.3,0-0.6-0.1-0.8-0.3c-0.3-0.2-0.5-0.4-0.6-0.8c-0.1-0.3-0.2-0.7-0.2-1.2c0-0.5,0.1-0.8,0.2-1.2c0.1-0.3,0.3-0.6,0.6-0.8
				c0.3-0.2,0.5-0.3,0.9-0.3c0.3,0,0.6,0.1,0.9,0.3c0.3,0.2,0.5,0.4,0.6,0.8c0.1,0.3,0.2,0.7,0.2,1.2
				C274.4,549.9,274.4,550.3,274.2,550.6z"/>
			<path fill="#FFBF00" d="M286.6,547.4c-0.2-0.5-0.6-0.9-1-1.2c-0.4-0.3-1-0.4-1.5-0.4c-0.5,0-1.1,0.1-1.5,0.3
				c-0.4,0.2-0.2,0.4-1.2,0.8v-2.7c0-0.3,0.1-0.6,0-0.7c-0.2-0.2-0.3-0.3-0.5-0.3c-0.3,0-0.3,0.1-0.4,0.3c-0.1,0.2,0,0.5,0,0.8v7.7
				c0,0.3-0.1,0.6,0.1,0.8c0.1,0.2,0.3,0.3,0.5,0.3s0.2-0.1,0.4-0.3c0.2-0.2,0-0.4,0-0.8v-0.2c1,0.2,0.5,0.4,0.6,0.5
				c0.1,0.1,0.4,0.2,0.5,0.3c0.2,0.1,0.4,0.2,0.7,0.3c0.2,0.1,0.5,0.1,0.8,0.1c0.4,0,0.9-0.1,1.2-0.3c0.4-0.2,0.7-0.4,0.9-0.8
				c0.3-0.3,0.5-0.7,0.6-1.1c0.1-0.5,0.2-0.9,0.2-1.5C286.9,548.6,286.8,548,286.6,547.4z M284.7,551c-0.3,0.4-0.7,0.6-1.1,0.6
				c-0.5,0-0.9-0.2-1.3-0.6c-0.3-0.4-0.5-0.9-0.5-1.6c0-0.5,0.1-0.9,0.2-1.2c0.1-0.4,0.4-0.6,0.6-0.8c0.3-0.2,0.6-0.3,0.9-0.3
				c0.3,0,0.6,0.1,0.8,0.3c0.3,0.2,0.4,0.4,0.6,0.8c0.1,0.3,0.2,0.7,0.2,1.2C285.2,550.1,285,550.6,284.7,551z"/>
			<path fill="#FFBF00" d="M293.3,546.2c-0.1-0.1-0.2-0.2-0.3-0.3c-0.1-0.1-0.3-0.1-0.4-0.1c-0.2,0-0.3,0-0.4,0.1
				c-0.1,0.1-0.2,0.2-0.3,0.4c-0.1,0.2-0.2,0.4-0.3,0.8l-1.4,4l-1.5-4.3c-0.1-0.3-0.2-0.5-0.3-0.7c-0.1-0.2-0.3-0.2-0.6-0.2
				c-0.1,0-0.3,0-0.4,0.1c-0.1,0.1-0.3,0.2-0.3,0.3c-0.1,0.1-0.1,0.3-0.1,0.4c0,0.1,0.1,0.4,0.2,0.7l2.2,5.4l-0.2,0.4
				c-0.1,0.3-0.2,0.5-0.3,0.7c-0.1,0.2-0.2,0.3-0.3,0.3c-0.1,0.1-0.3,0.1-0.5,0.1c-0.1,0-0.2,0-0.3,0c-0.1,0-0.2,0-0.3,0
				c-0.2,0-0.4,0.1-0.5,0.2c-0.1,0.1-0.2,0.3-0.2,0.5c0,0.3,0.1,0.5,0.4,0.6c0.3,0.1,0.6,0.2,1.2,0.2c0.5,0,0.9-0.1,1.3-0.2
				c0.3-0.2,0.6-0.4,0.8-0.7c0.2-0.3,0.4-0.7,0.6-1.2l2.3-6c0-0.2,0.1-0.3,0.1-0.5c0-0.1,0.1-0.3,0.1-0.3
				C293.4,546.4,293.4,546.3,293.3,546.2z"/>
		</g>
		<g>
			<path fill="#FFBF00" d="M314.7,545.5h0.7v-0.1c0-0.6-0.1-1,0.1-1.3c0.1-0.3,0.3-0.6,0.6-0.7c0.3-0.1,0.8-0.2,1.3-0.2
				c1,0,1.5,0.2,1.5,0.8c0,0.2-0.1,0.3-0.2,0.4c-0.1,0.1-0.2,0.2-0.4,0.2c-0.1,0-0.2,0-0.4,0c-0.2,0-0.3,0-0.4,0
				c-0.3,0-0.8,0.1-0.9,0.3c-0.1,0.2-0.4,0.5-0.4,0.8v0h0.9c0.7,0,1,0.4,1,0.8c0,0.3-0.1,0.7-0.3,0.8c-0.2,0.1-0.4,0.4-0.7,0.4h-0.9
				v4.4c0,0.3,0.2,0.6,0,0.8c-0.2,0.2-0.3,0.3-0.5,0.3c-0.2,0-0.3-0.1-0.4-0.3c-0.2-0.2-0.1-0.4-0.1-0.8v-4.4h-0.7
				c-0.3,0-0.5-0.2-0.6-0.3c-0.1-0.1-0.2-0.6-0.2-0.8C313.8,546,314.1,545.5,314.7,545.5L314.7,545.5z"/>
			<path fill="#FFBF00" d="M320.3,550.4v1.5c0,0.4-0.1,0.6-0.2,0.8c-0.2,0.2-0.4,0.3-0.6,0.3c-0.3,0-0.6-0.1-0.8-0.3
				c-0.2-0.2-0.4-0.4-0.4-0.8V547c0-0.8,0.4-1.2,1-1.2c0.3,0,0.6,0.1,0.7,0.3c0.1,0.2,0.2,0.5,0.3,0.8c0.2-0.4,0.4-0.6,0.7-0.8
				c0.2-0.2,0.5-0.3,0.9-0.3c0.4,0,0.7,0.1,1.1,0.3c0.3,0.2,0.5,0.4,0.5,0.7c0,0.2-0.1,0.4-0.2,0.5c-0.1,0.1-0.3,0.2-0.5,0.2
				c-0.1,0-0.2,0-0.5-0.1c-0.2-0.1-0.5-0.1-0.7-0.1c-0.3,0-0.5,0.1-0.6,0.2c-0.2,0.1-0.3,0.3-0.4,0.6c-0.1,0.3-0.2,0.6-0.2,1
				C320.4,549.4,320.3,549.9,320.3,550.4L320.3,550.4z"/>
			<path fill="#FFBF00" d="M329.2,550.5c-0.2,0-0.3,0-0.4,0.1c-0.2,0.2-0.4,0.4-0.5,0.5c-0.1,0.1-0.3,0.2-0.4,0.3
				c-0.2,0.1-0.3,0.2-0.5,0.2c-0.2,0.1-0.4,0.1-0.6,0.1c-0.3,0-0.6-0.1-0.9-0.2c-0.3-0.2-0.5-0.5-0.6-0.8c-0.2-0.3-0.2-0.2-0.2-1.2
				h3.4c0.5,0,0.8,0.1,1.1,0c0.3-0.1,0.4-0.3,0.4-0.8c0-0.5-0.1-0.9-0.4-1.4c-0.2-0.5-0.6-0.8-1.1-1.1c-0.5-0.3-1.1-0.4-1.8-0.4
				c-0.5,0-1,0.1-1.4,0.3c-0.4,0.2-0.8,0.4-1.1,0.7c-0.3,0.3-0.5,0.7-0.7,1.1c-0.2,0.5-0.2,0.9-0.2,1.5c0,1.1,0.3,2,0.9,2.6
				c0.6,0.6,1.5,1,2.6,1c0.5,0,0.9-0.1,1.3-0.2c0.4-0.1,0.7-0.3,1-0.5c0.3-0.2,0.4-0.4,0.6-0.6c0.1-0.2,0.2-0.4,0.2-0.5
				c0-0.2-0.1-0.3-0.2-0.4C329.6,550.6,329.4,550.5,329.2,550.5z M325.6,547.3c0.3-0.3,0.6-0.4,1.1-0.4c0.5,0,0.8,0,1.1,0.3
				c0.3,0.3,0.4,1.2,0.5,1.2H325C325.1,548.5,325.3,547.6,325.6,547.3z"/>
			<path fill="#FFBF00" d="M336.5,550.5c-0.2,0-0.3,0-0.4,0.1c-0.2,0.2-0.4,0.4-0.5,0.5c-0.1,0.1-0.3,0.2-0.5,0.3
				c-0.2,0.1-0.3,0.2-0.5,0.2c-0.2,0.1-0.4,0.1-0.6,0.1c-0.3,0-0.6-0.1-0.9-0.2c-0.3-0.2-0.5-0.5-0.6-0.8c-0.2-0.3-0.2-0.2-0.3-1.2
				h3.4c0.5,0,0.8,0.1,1.1,0c0.3-0.1,0.4-0.3,0.4-0.8c0-0.5-0.1-0.9-0.4-1.4c-0.2-0.5-0.6-0.8-1.1-1.1c-0.5-0.3-1.1-0.4-1.8-0.4
				c-0.5,0-1,0.1-1.4,0.3c-0.4,0.2-0.8,0.4-1.1,0.7c-0.3,0.3-0.5,0.7-0.7,1.1c-0.2,0.5-0.2,0.9-0.2,1.5c0,1.1,0.3,2,1,2.6
				c0.6,0.6,1.5,1,2.6,1c0.5,0,0.9-0.1,1.3-0.2c0.4-0.1,0.7-0.3,0.9-0.5c0.3-0.2,0.4-0.4,0.6-0.6c0.1-0.2,0.2-0.4,0.2-0.5
				c0-0.2,0-0.3-0.2-0.4C336.9,550.6,336.7,550.5,336.5,550.5z M332.9,547.3c0.3-0.3,0.6-0.4,1.1-0.4c0.5,0,0.8,0,1.1,0.3
				c0.3,0.3,0.4,1.2,0.5,1.2h-3.2C332.4,548.5,332.6,547.6,332.9,547.3z"/>
			<path fill="#FFBF00" d="M344.8,549.2c0-0.7-0.1-1.2-0.4-1.7c-0.3-0.5-0.6-0.9-1.1-1.2c-0.5-0.3-1-0.4-1.5-0.4
				c-0.5,0-1,0.1-1.4,0.3c-0.4,0.2-0.2,0.5-1.2,0.9v-0.2c0-0.3,0.1-0.6-0.1-0.7c-0.2-0.2-0.3-0.3-0.5-0.3s-0.2,0.1-0.4,0.2
				c-0.2,0.2,0,0.4,0,0.8v7.6c0,0.4-0.1,0.7,0,0.9c0.1,0.2,0.1,0.3,0.4,0.3c0.6,0,0.6-0.4,0.6-1.2v-2.6c0,0.2,0.5,0.4,0.7,0.6
				c0.1,0.1,0.4,0.2,0.5,0.3c0.3,0.2,0.8,0.3,1.3,0.3c0.4,0,0.8-0.1,1.2-0.2c0.4-0.2,0.7-0.4,1-0.7c0.3-0.3,0.5-0.7,0.6-1.1
				c0.2-0.5,0.2-1,0.2-1.5C344.9,549.3,344.9,549.2,344.8,549.2z M342.9,550.6c-0.2,0.3-0.3,0.6-0.6,0.8c-0.2,0.2-0.5,0.3-0.8,0.3
				c-0.1,0-0.1,0-0.2,0c-0.4,0-0.8-0.2-1.1-0.6c-0.3-0.4-0.5-0.9-0.5-1.6c0-0.7,0.2-1.3,0.5-1.7c0.3-0.4,0.7-0.6,1.2-0.6
				c0.3,0,0.6,0.1,0.8,0.3c0.3,0.2,0.4,0.4,0.6,0.8c0.2,0.3,0.2,0.7,0.2,1.2c0,0.4-0.1,0.8-0.2,1.1
				C342.9,550.5,342.9,550.5,342.9,550.6z"/>
			<path fill="#FFBF00" d="M347.2,546.1c-0.2-0.2-0.3-0.3-0.6-0.3c-0.3,0-0.6,0.1-0.8,0.3c-0.2,0.2-0.4,0.4-0.4,0.8v5
				c0,0.3,0.3,0.6,0.4,0.8c0.2,0.2,0.5,0.3,0.7,0.3c0.3,0,0.4-0.1,0.6-0.3c0.2-0.2,0.2-0.4,0.2-0.8v-5.1
				C347.3,546.5,347.3,546.2,347.2,546.1z M347.2,543.5c-0.2-0.2-0.4-0.2-0.6-0.2c-0.2,0-0.4,0.1-0.6,0.2c-0.2,0.2-0.3,0.4-0.3,0.6
				c0,0.3,0.1,0.5,0.3,0.6c0.2,0.2,0.4,0.2,0.6,0.2c0.2,0,0.4-0.1,0.6-0.2c0.2-0.1,0.3-0.4,0.3-0.6
				C347.5,543.8,347.4,543.6,347.2,543.5z"/>
			<path fill="#FFBF00" d="M353.2,552.1l-1.7-2.6l-1.1,0.9v1.4c0,0.3,0.1,0.6-0.1,0.8c-0.2,0.2-0.3,0.3-0.5,0.3
				c-0.3,0-0.2-0.1-0.4-0.3c-0.2-0.2,0-0.4,0-0.8v-7.5c0-0.4-0.1-0.7,0-0.9c0.2-0.2,0.3-0.3,0.5-0.3c0.3,0,0.3,0.1,0.4,0.3
				c0.2,0.2,0,0.5,0,0.8v4.3l2.1-2.1c0.2-0.3,0.5-0.4,0.6-0.5c0.1-0.1,0.3-0.1,0.5-0.1c0.2,0,0.4,0.1,0.6,0.2
				c0.1,0.1,0.2,0.3,0.2,0.5c0,0.3-0.2,0.6-0.7,1l-0.9,0.9l1.8,2.8c0.1,0.2,0.2,0.4,0.3,0.5c0.1,0.1,0.1,0.2,0.1,0.3
				c0,0.3-0.1,0.5-0.2,0.7c-0.2,0.2-0.4,0.2-0.6,0.2c-0.2,0-0.4-0.1-0.5-0.2C353.5,552.7,353.4,552.5,353.2,552.1L353.2,552.1z"/>
			<path fill="#FFBF00" d="M357,553c-0.3,0-0.5-0.1-0.7-0.3c-0.2-0.2-0.3-0.4-0.3-0.7c0-0.3,0.1-0.5,0.3-0.7
				c0.2-0.2,0.4-0.3,0.7-0.3c0.3,0,0.5,0.1,0.7,0.3c0.2,0.2,0.3,0.4,0.3,0.7c0,0.3-0.1,0.5-0.3,0.7C357.5,552.9,357.2,553,357,553
				L357,553z"/>
			<path fill="#FFBF00" d="M365.7,550.8c0,0.2-0.1,0.5-0.2,0.7c-0.1,0.3-0.3,0.5-0.6,0.7c-0.3,0.2-0.6,0.4-1,0.5
				c-0.4,0.1-0.9,0.2-1.4,0.2c-1.1,0-1.9-0.3-2.5-0.9c-0.6-0.6-0.9-1.5-0.9-2.5c0-0.7,0.1-1.4,0.4-1.9c0.3-0.6,0.7-1,1.2-1.3
				c0.5-0.3,1.2-0.5,1.9-0.5c0.5,0,0.9,0.1,1.3,0.2c0.4,0.1,0.7,0.3,1,0.5c0.3,0.2,0.5,0.4,0.6,0.7c0.1,0.2,0.2,0.5,0.2,0.7
				c0,0.2-0.1,0.4-0.2,0.5c-0.2,0.1-0.3,0.2-0.6,0.2c-0.1,0-0.3,0-0.4-0.1c-0.1-0.1-0.2-0.2-0.3-0.4c-0.2-0.3-0.4-0.6-0.7-0.7
				c-0.2-0.2-0.5-0.2-0.9-0.2c-0.5,0-0.9,0.2-1.3,0.6c-0.3,0.4-0.5,1-0.5,1.7c0,0.3,0,0.6,0.1,0.9c0.1,0.3,0.2,0.5,0.4,0.7
				c0.2,0.2,0.3,0.3,0.6,0.4c0.2,0.1,0.5,0.2,0.7,0.2c0.4,0,0.7-0.1,0.9-0.2c0.3-0.2,0.5-0.4,0.7-0.7c0.1-0.2,0.2-0.4,0.3-0.5
				c0.1-0.1,0.3-0.2,0.5-0.2c0.2,0,0.4,0.1,0.5,0.2C365.6,550.4,365.7,550.6,365.7,550.8L365.7,550.8z"/>
			<path fill="#FFBF00" d="M373.1,547.9c-0.2-0.4-0.4-0.8-0.7-1.1c-0.3-0.3-0.7-0.6-1.1-0.7c-0.4-0.2-0.9-0.3-1.5-0.3
				c-0.5,0-1,0.1-1.4,0.3c-0.4,0.2-0.8,0.4-1.1,0.7c-0.3,0.3-0.5,0.7-0.7,1.1c-0.2,0.4-0.2,0.9-0.2,1.5c0,0.5,0.1,1,0.2,1.5
				c0.2,0.4,0.4,0.8,0.7,1.1c0.3,0.3,0.7,0.6,1.1,0.7c0.4,0.2,0.9,0.3,1.4,0.3c0.5,0,1-0.1,1.5-0.3c0.4-0.2,0.8-0.4,1.1-0.7
				c0.3-0.3,0.5-0.7,0.7-1.1c0.2-0.4,0.2-0.9,0.2-1.5C373.3,548.8,373.2,548.4,373.1,547.9z M371.1,551c-0.3,0.4-0.7,0.6-1.3,0.6
				c-0.4,0-0.7-0.1-0.9-0.3c-0.3-0.2-0.5-0.5-0.6-0.8c-0.1-0.3-0.2-0.7-0.2-1.2c0-0.5,0.1-0.9,0.2-1.2c0.1-0.3,0.3-0.6,0.6-0.8
				c0.3-0.2,0.6-0.3,0.9-0.3c0.5,0,1,0.2,1.3,0.6c0.3,0.4,0.5,1,0.5,1.7C371.5,550.1,371.4,550.6,371.1,551z"/>
			<path fill="#FFBF00" d="M380.3,549.5v2.3c0,0.4-0.2,0.6-0.4,0.8c-0.2,0.2-0.5,0.3-0.7,0.3c-0.3,0-0.5-0.1-0.6-0.3
				c-0.2-0.2-0.2-0.5-0.2-0.8V549c0-0.4-0.1-0.8-0.1-1c0-0.2-0.1-0.4-0.3-0.6c-0.1-0.2-0.4-0.2-0.6-0.2c-0.6,0-0.7,0.2-0.9,0.6
				c-0.2,0.4-0.1,1-0.1,1.7v2.4c0,0.4-0.3,0.6-0.5,0.8c-0.2,0.2-0.5,0.3-0.8,0.3c-0.3,0-0.4-0.1-0.6-0.3c-0.2-0.2-0.2-0.5-0.2-0.8
				v-5c0-0.3-0.1-0.6,0.1-0.8c0.2-0.2,0.3-0.3,0.5-0.3c0.2,0,0.2,0.1,0.4,0.2c0.2,0.2,0,0.4,0,0.7v0.2c1-0.4,0.8-0.6,1.2-0.8
				c0.4-0.2,0.8-0.3,1.3-0.3c0.4,0,0.9,0.1,1.2,0.3c0.3,0.2,0.6,0.4,0.8,0.8c0.3-0.4,0.6-0.6,1-0.8c0.3-0.2,0.7-0.3,1.1-0.3
				c0.5,0,0.9,0.1,1.2,0.3c0.3,0.2,0.7,0.5,0.9,0.8c0.1,0.3,0.3,0.8,0.3,1.5v3.4c0,0.4-0.2,0.6-0.4,0.8c-0.2,0.2-0.4,0.3-0.7,0.3
				c-0.3,0-0.5-0.1-0.7-0.3c-0.2-0.2-0.3-0.5-0.3-0.8v-3c0-0.4,0-0.7-0.1-0.9c0-0.2-0.1-0.4-0.3-0.6c-0.1-0.2-0.4-0.2-0.6-0.2
				c-0.2,0-0.5,0.1-0.7,0.2c-0.2,0.1-0.2,0.3-0.3,0.6C380.2,548.2,380.3,548.8,380.3,549.5L380.3,549.5z"/>
		</g>
		<g>
			<path fill="#FFBF00" d="M298.2,549C298.2,549,298.2,548.9,298.2,549C298.2,548.9,298.2,549,298.2,549z"/>
			<path fill="#FFBF00" d="M298.3,549.5C298.3,549.5,298.3,549.5,298.3,549.5c0-0.2-0.1-0.3-0.1-0.5
				C298.2,549.2,298.3,549.4,298.3,549.5z"/>
			<path fill="#FFBF00" d="M298.9,551.1C298.9,551.1,298.9,551.1,298.9,551.1C298.9,551.1,298.9,551.1,298.9,551.1z"/>
			<path fill="#FFBF00" d="M298.8,551C298.8,551,298.8,551,298.8,551C298.8,551,298.8,551,298.8,551z"/>
			<path fill="#FFBF00" d="M298.5,550.1c0.1,0.3,0.2,0.5,0.3,0.8C298.6,550.7,298.5,550.4,298.5,550.1
				C298.5,550.1,298.5,550.1,298.5,550.1z"/>
			<path fill="#FFBF00" d="M305,542.2c0.3,0,0.6,0,0.9,0.1l0.1-0.5c0,0-0.8-0.2-1.8-0.2l-0.1-0.3c0.3-0.1,0.6-0.4,0.6-0.7
				c0-0.4-0.3-0.7-0.7-0.7c-0.4,0-0.7,0.3-0.7,0.7c0,0.3,0.2,0.6,0.6,0.7l0.1,0.3c-1.1,0.2-2,0.6-2,0.6l0.2,0.5
				c0.7-0.2,1.3-0.4,1.8-0.4C304.3,542.2,304.7,542.2,305,542.2z"/>
			<path fill="#FFBF00" d="M298.9,544.8L298.9,544.8c0,0,0.1-0.1,0.1-0.1l-0.2-0.2l-0.3-0.2c0,0-0.5,0.5-0.9,1.4c0,0,0,0-0.1-0.1
				c-0.1-0.1-0.3-0.2-0.5-0.2c0,0,0,0,0,0c-0.1,0-0.2-0.1-0.3-0.1c0.1-0.1,0.1-0.2,0.1-0.3c0-0.2-0.2-0.5-0.5-0.5
				c-0.2,0-0.5,0.2-0.5,0.4c0,0.3,0.2,0.5,0.5,0.5c0,0,0.1,0,0.1,0c0.1,0.1,0.3,0.2,0.5,0.2c0.1,0,0.2,0,0.3,0.1
				c0.1,0.1,0.1,0.2,0.1,0.3c0,0,0,0,0,0c-0.3,0.8-0.2,1.8-0.2,1.8l0.7,0c0-0.4,0.1-1,0.3-1.5C298.4,545.5,298.8,544.9,298.9,544.8z
				"/>
			<path fill="#FFBF00" d="M311.2,542.8c-0.2,0-0.5,0.2-0.5,0.5c0,0,0,0.1,0,0.1c-0.1,0.1-0.2,0.3-0.2,0.5c0,0.1,0,0.2-0.1,0.3
				c-0.1,0.1-0.1,0.1-0.2,0.1c-0.5-0.7-1.2-1.2-1.2-1.2l-0.5,0.6c0.4,0.4,0.8,0.8,1.2,1.3c0.3,0.4,0.5,0.9,0.8,1.4l0.7-0.3
				c0,0-0.3-0.8-0.8-1.5c0.1,0,0.2-0.1,0.2-0.1c0.1-0.1,0.2-0.3,0.2-0.5c0-0.1,0-0.2,0.1-0.3c0.1,0.1,0.2,0.1,0.3,0.1
				c0.3,0,0.5-0.2,0.5-0.5C311.7,543,311.5,542.8,311.2,542.8z"/>
			<path fill="#FFBF00" d="M309.4,549.1c-1,0.5-2.5,1.1-4.6,1.4c-0.8,0.1-1.6,0.2-2.3,0.2c-0.9,0-1.8-0.1-2.4-0.2
				c-0.7-0.1-1.3-0.2-1.6-0.3c0.1,0.3,0.2,0.5,0.3,0.8c0,0,0,0,0,0c0,0,0,0.1,0,0.1c0,0,0,0.1,0,0.1c0,0,0,0,0,0
				c0.2,0.4,0.5,0.7,0.7,1c1,1.1,2,1.2,2,1.2l0,0l0,0c0,0,0.9,0.3,2.2,0.3c1.3,0,2.6-0.3,3.8-0.8c0.9-0.5,1.8-1.2,2.2-1.8
				c0.3-0.5,0.6-1,0.7-1.6c0.1-0.3,0.1-0.8,0.1-1.2C310.4,548.5,310,548.8,309.4,549.1z"/>
			<path fill="#FFBF00" d="M309.4,545.2c-1.3-1.9-2.8-2.4-3.6-2.6c-0.3,0-0.5-0.1-0.8-0.1c-0.3,0-0.7,0-1.2,0.1
				c-0.5,0.1-1.1,0.2-1.7,0.4c-0.9,0.3-1.7,0.8-2.4,1.4l0,0c-0.1,0.1-0.3,0.3-0.5,0.6c0,0-0.4,0.6-0.8,1.5c-0.3,0.7-0.2,1.7-0.2,1.7
				c0,0.2,0.1,0.5,0.1,0.7c0,0,0,0,0,0c0,0-0.1,0-0.1,0.1c0,0.2,0,0.3,0,0.5c0.5,0.1,3.3,0.8,6.5,0.3c2-0.3,3.5-0.9,4.4-1.3
				c0.8-0.4,1.2-0.7,1.4-0.8C310.4,547,309.9,545.9,309.4,545.2z M301.9,548.4c-1.1,0-1.9-0.8-1.9-1.9c0-1,0.8-1.9,1.9-1.9
				c1.1,0,1.9,0.8,1.9,1.9C303.8,547.5,303,548.4,301.9,548.4z M307.5,547c-0.7,0-1.2-0.5-1.2-1.2c0-0.7,0.5-1.2,1.2-1.2
				c0.6,0,1.2,0.5,1.2,1.2C308.7,546.4,308.1,547,307.5,547z"/>
		</g>
	</g>
</g>
</svg>
